<?xml version="1.0" encoding="UTF-8"?>
<svg id="Layer_1" data-name="Layer 1" xmlns="http://www.w3.org/2000/svg" xmlns:xlink="http://www.w3.org/1999/xlink" viewBox="0 0 1150.28 209.96">
  <defs>
    <style>
      .cls-1 {
        fill: url(#linear-gradient-12);
      }

      .cls-1, .cls-2, .cls-3, .cls-4, .cls-5, .cls-6, .cls-7, .cls-8, .cls-9, .cls-10, .cls-11, .cls-12, .cls-13, .cls-14, .cls-15, .cls-16, .cls-17, .cls-18, .cls-19, .cls-20, .cls-21, .cls-22 {
        stroke-width: 0px;
      }

      .cls-2 {
        fill: url(#linear-gradient-17);
      }

      .cls-3 {
        fill: url(#linear-gradient-19);
      }

      .cls-4 {
        fill: url(#linear-gradient);
      }

      .cls-5 {
        fill: url(#linear-gradient-6);
      }

      .cls-6 {
        fill: url(#linear-gradient-15);
      }

      .cls-7 {
        fill: url(#linear-gradient-11);
      }

      .cls-8 {
        fill: #ffd302;
      }

      .cls-9 {
        fill: url(#linear-gradient-5);
      }

      .cls-10 {
        fill: #f5f4bc;
      }

      .cls-11 {
        fill: url(#linear-gradient-13);
      }

      .cls-12 {
        fill: url(#linear-gradient-16);
      }

      .cls-13 {
        fill: url(#linear-gradient-20);
      }

      .cls-14 {
        fill: url(#linear-gradient-14);
      }

      .cls-15 {
        fill: url(#linear-gradient-2);
      }

      .cls-16 {
        fill: url(#linear-gradient-7);
      }

      .cls-17 {
        fill: url(#linear-gradient-3);
      }

      .cls-18 {
        fill: url(#linear-gradient-9);
      }

      .cls-19 {
        fill: url(#linear-gradient-8);
      }

      .cls-20 {
        fill: url(#linear-gradient-18);
      }

      .cls-23 {
        mask: url(#mask-1);
      }

      .cls-24 {
        mask: url(#mask);
      }

      .cls-21 {
        fill: url(#linear-gradient-10);
      }

      .cls-22 {
        fill: url(#linear-gradient-4);
      }
    </style>
    <linearGradient id="linear-gradient" x1="306.99" y1="48.4" x2="306.99" y2="197.78" gradientUnits="userSpaceOnUse">
      <stop offset="0" stop-color="#b0ca35"/>
      <stop offset="1" stop-color="#85a13d"/>
    </linearGradient>
    <linearGradient id="linear-gradient-2" x1="438.23" y1="48.4" x2="438.23" y2="197.78" xlink:href="#linear-gradient"/>
    <linearGradient id="linear-gradient-3" x1="568.91" y1="48.4" x2="568.91" y2="197.78" xlink:href="#linear-gradient"/>
    <linearGradient id="linear-gradient-4" x1="69.22" y1="468.84" x2="-37.15" y2="579.69" gradientTransform="translate(0 672) scale(1 -1)" gradientUnits="userSpaceOnUse">
      <stop offset="0" stop-color="#0369ae"/>
      <stop offset="1" stop-color="#5ac9ed"/>
    </linearGradient>
    <linearGradient id="linear-gradient-5" x1="155.26" y1="468.97" x2="147.44" y2="552.76" xlink:href="#linear-gradient-4"/>
    <linearGradient id="linear-gradient-6" x1="87.35" y1="449.98" x2="89.87" y2="573.05" xlink:href="#linear-gradient-4"/>
    <linearGradient id="linear-gradient-7" x1="47.45" y1="440.83" x2="140.81" y2="644" gradientTransform="translate(0 672) scale(1 -1)" gradientUnits="userSpaceOnUse">
      <stop offset="0" stop-color="#3473b8"/>
      <stop offset="1" stop-color="#62be7b"/>
    </linearGradient>
    <linearGradient id="linear-gradient-8" x1="-2.42" y1="520.79" x2="48.57" y2="631.73" xlink:href="#linear-gradient-7"/>
    <linearGradient id="linear-gradient-9" x1="149.73" y1="474.96" x2="200.71" y2="585.9" xlink:href="#linear-gradient-7"/>
    <linearGradient id="linear-gradient-10" x1="14.26" y1="1699.07" x2="14.26" y2="182.76" gradientTransform="translate(97.89 522.79) scale(1 -1)" gradientUnits="userSpaceOnUse">
      <stop offset="0" stop-color="#fff"/>
      <stop offset="1" stop-color="#000"/>
    </linearGradient>
    <mask id="mask" x="0" y="-13.85" width="224.29" height="146.21" maskUnits="userSpaceOnUse">
      <g id="o">
        <path class="cls-21" d="M0-13.85h224.29v146.21H0V-13.85Z"/>
      </g>
    </mask>
    <linearGradient id="linear-gradient-11" x1="263.03" y1="467.45" x2="156.66" y2="578.31" gradientTransform="translate(-194.23 670.38) rotate(.04) scale(1 -1)" xlink:href="#linear-gradient-4"/>
    <linearGradient id="linear-gradient-12" x1="349.07" y1="467.58" x2="341.25" y2="551.37" gradientTransform="translate(-194.23 670.38) rotate(.04) scale(1 -1)" xlink:href="#linear-gradient-4"/>
    <linearGradient id="linear-gradient-13" x1="281.16" y1="448.6" x2="283.68" y2="571.67" gradientTransform="translate(-194.23 670.38) rotate(.04) scale(1 -1)" xlink:href="#linear-gradient-4"/>
    <linearGradient id="linear-gradient-14" x1="241.26" y1="439.45" x2="334.62" y2="642.61" gradientTransform="translate(-194.23 670.38) rotate(.04) scale(1 -1)" xlink:href="#linear-gradient-7"/>
    <linearGradient id="linear-gradient-15" x1="191.39" y1="519.4" x2="242.38" y2="630.35" gradientTransform="translate(-194.23 670.38) rotate(.04) scale(1 -1)" xlink:href="#linear-gradient-7"/>
    <linearGradient id="linear-gradient-16" x1="343.54" y1="473.57" x2="394.52" y2="584.51" gradientTransform="translate(-194.23 670.38) rotate(.04) scale(1 -1)" xlink:href="#linear-gradient-7"/>
    <linearGradient id="linear-gradient-17" x1="237.71" y1="-80.53" x2="476.6" y2="77.98" gradientTransform="translate(-269.66 -45.84) rotate(9.08) scale(1 -1)" gradientUnits="userSpaceOnUse">
      <stop offset="0" stop-color="#00a99e"/>
      <stop offset="1" stop-color="#f7d731"/>
    </linearGradient>
    <linearGradient id="linear-gradient-18" x1="1093.84" y1="402.32" x2="1050.9" y2="558" gradientTransform="translate(-914.84 463.75) rotate(4.68) scale(1 -1)" xlink:href="#linear-gradient-17"/>
    <linearGradient id="linear-gradient-19" x1="1377.86" y1="1233.99" x2="1377.86" y2="-282.32" gradientTransform="translate(1476.09 153.2) rotate(-180) scale(1 -1)" xlink:href="#linear-gradient-10"/>
    <mask id="mask-1" x="-13.92" y="78.55" width="224.29" height="146.21" maskUnits="userSpaceOnUse">
      <g id="o-2" data-name="o">
        <path class="cls-3" d="M210.38,224.76H-13.92V78.55h224.29v146.21Z"/>
      </g>
    </mask>
    <linearGradient id="linear-gradient-20" x1="39.88" y1="65.49" x2="221.09" y2="-5.01" gradientTransform="matrix(1,0,0,1,0,0)" xlink:href="#linear-gradient-17"/>
  </defs>
  <g>
    <g>
      <path class="cls-4" d="M260.78,171.49V57.62c0-3.7,1.29-6.84,3.88-9.43s5.73-3.88,9.43-3.88h79.12v21.81h-66.55v27.36h49.54v8.5c0,3.7-1.29,6.84-3.88,9.43-2.59,2.59-5.73,3.88-9.43,3.88h-36.23v32.53h66.55v23.66h-92.43Z"/>
      <path class="cls-15" d="M450.99,171.49h-25.51v-62.85c0-5.92-1.79-10.22-5.36-12.94-3.58-2.71-7.58-4.07-12.02-4.07s-8.38,1.36-11.83,4.07c-3.45,2.71-5.18,7.02-5.18,12.94v62.85h-25.88v-57.67c0-16.76,4.37-27.97,13.12-33.64,8.75-5.67,18.42-8.75,29.02-9.24,5.67,0,11.21.62,16.64,1.85,5.42,1.24,10.35,3.7,14.79,7.39,3.7-3.2,8.07-5.48,13.12-6.84,5.05-1.35,10.29-2.15,15.71-2.4,10.84,0,20.82,2.84,29.95,8.5,9.12,5.67,13.68,17.13,13.68,34.38v57.67h-12.94c-3.7,0-6.72-1.17-9.06-3.51-2.34-2.34-3.51-5.36-3.51-9.06v-50.28c0-5.92-1.79-10.22-5.36-12.94-3.58-2.71-7.58-4.07-12.02-4.07s-8.45,1.36-12.02,4.07c-3.58,2.71-5.36,7.02-5.36,12.94v62.85Z"/>
      <path class="cls-17" d="M538.04,162.61c-5.18-4.44-8.87-10.41-11.09-17.93-2.22-7.52-3.33-15.34-3.33-23.48,0-6.65.92-13.31,2.77-19.96s4.74-12.2,8.69-16.64c6.41-7.39,14.66-11.77,24.77-13.12,10.1-1.35,19.22-.55,27.36,2.4,9.36,3.7,16.27,10.11,20.7,19.22,4.19,8.13,6.28,17.62,6.28,28.47,0,7.89-.87,14.67-2.59,20.33-1.73,5.67-3.95,10.48-6.65,14.42-5.92,8.13-13.44,13.19-22.55,15.16-8.13,2.22-16.33,2.4-24.59.55-8.26-1.85-14.85-4.99-19.78-9.43ZM555.79,97.55c-5.18,5.67-7.52,14.11-7.02,25.32.49,11.22,2.59,19.04,6.28,23.48,1.48,1.98,4.07,3.64,7.76,4.99,3.7,1.36,7.45,1.48,11.28.37,3.82-1.11,7.21-3.88,10.17-8.32s4.56-11.58,4.81-21.44c0-8.87-1.42-15.53-4.25-19.96-2.84-4.44-6.1-7.27-9.8-8.5-3.7-1.23-7.39-1.29-11.09-.18-3.7,1.11-6.41,2.53-8.13,4.25Z"/>
    </g>
    <g>
      <path class="cls-8" d="M677.53,172.77c-13.57.74-24.97-3.55-34.19-12.88-8.9-9.01-13.73-20.25-14.47-33.71-.69-13.26,2.99-24.92,11.05-34.99,8.38-10.55,19.19-16.19,32.44-16.94,7.05-.37,13.94.77,20.67,3.42,8.32,3.23,12.67,7.84,13.04,13.83.21,3.45-.67,6.76-2.62,9.94-2.38,3.77-5.59,5.76-9.62,5.97-2.18.11-5.3-.49-9.39-1.79-4.08-1.3-7.21-1.9-9.38-1.79-4.88.21-8.62,2.28-11.21,6.2-2.6,3.92-3.74,8.75-3.42,14.47.32,5.36,2.03,9.88,5.13,13.56,3.11,3.69,6.93,5.37,11.49,5.05,2.07-.11,4.97-1.06,8.7-2.86,3.74-1.8,6.59-2.75,8.55-2.86,3.82-.21,7.18,1.01,10.1,3.66,2.92,2.65,4.48,5.94,4.69,9.86.37,6.31-3.58,11.64-11.85,15.98-6.52,3.55-13.09,5.51-19.72,5.88Z"/>
      <path class="cls-8" d="M765.3,76.79c4.87-1.59,10.9-1.59,18.05,0,8.59,1.96,15.46,5.94,20.63,11.93,5.17,5.99,7.75,13.15,7.75,21.46,0,3.08-.4,6.23-1.19,9.46l-10.1,43.81c-.95,4.14-2.85,7.42-5.68,9.86-2.84,2.44-6.08,3.66-9.74,3.66-1.22,0-2.47-.11-3.74-.32-3.82-.9-6.79-2.78-8.9-5.65-2.12-2.86-3.18-6.21-3.18-10.02,0-1.48.16-3.05.48-4.7l9.14-39.75c.32-1.43.48-2.73.48-3.9,0-3.29-1.11-5.89-3.34-7.83-2.22-1.93-4.95-2.9-8.19-2.9-5.46,0-8.94,3.21-10.42,9.62l-9.31,39.84c-.9,4.03-2.76,7.29-5.57,9.78-2.81,2.49-6.12,3.73-9.94,3.73-1.17,0-2.41-.16-3.73-.48-3.66-.85-6.58-2.69-8.75-5.52-2.18-2.84-3.26-6.14-3.26-9.9,0-1.54.16-3.13.48-4.77l22.58-97.72c1.01-4.08,2.92-7.35,5.73-9.82,2.81-2.47,6.07-3.7,9.78-3.7,1.22,0,2.47.13,3.74.4,3.81.85,6.78,2.7,8.9,5.57,2.12,2.86,3.18,6.2,3.18,10.02,0,1.54-.18,3.13-.55,4.77l-5.33,23.06Z"/>
      <path class="cls-8" d="M869.38,173.24c-13.57.64-24.97-3.71-34.19-13.04-8.9-9.01-13.73-20.25-14.47-33.71-.69-13.25,2.99-24.91,11.05-34.99,8.38-10.55,19.19-16.19,32.44-16.93,13.3-.69,24.65,3.81,34.03,13.52,9.01,9.12,13.89,20.3,14.63,33.55.64,13.57-2.94,25.23-10.73,34.99-8.27,10.28-19.19,15.82-32.76,16.62ZM865.81,104.14c-4.45.27-7.9,2.38-10.34,6.32-2.44,3.95-3.5,8.76-3.18,14.43.32,5.4,1.9,9.92,4.73,13.56,2.84,3.63,6.43,5.34,10.77,5.13,4.45-.21,7.9-2.28,10.34-6.21,2.44-3.92,3.5-8.64,3.18-14.15-.37-5.51-1.93-10.12-4.69-13.83s-6.36-5.46-10.81-5.25Z"/>
      <path class="cls-8" d="M935.68,74.88c-4.66.32-8.78-1.2-12.36-4.57-3.58-3.36-5.55-7.38-5.92-12.05-.21-4.45,1.34-8.47,4.65-12.04,3.32-3.58,7.25-5.48,11.81-5.69,4.56-.32,8.67,1.11,12.33,4.29,3.65,3.18,5.59,7.05,5.8,11.61.21,4.77-1.26,8.98-4.42,12.64-3.15,3.65-7.11,5.59-11.89,5.8ZM940.7,172.05c-4.66.37-8.53-.99-11.61-4.09-3.07-3.1-4.75-7.09-5.01-11.97l-3.26-62.58c-.32-4.88.91-9,3.7-12.36,2.78-3.37,6.51-5.21,11.17-5.53,4.67-.21,8.55,1.24,11.65,4.34,3.1,3.1,4.76,7.09,4.97,11.97l3.42,62.5c.21,4.88-1.07,9-3.86,12.36-2.78,3.36-6.51,5.15-11.17,5.37Z"/>
      <path class="cls-8" d="M1014.95,172.77c-13.57.74-24.97-3.55-34.19-12.88-8.9-9.01-13.73-20.25-14.47-33.71-.69-13.26,2.99-24.92,11.05-34.99,8.38-10.55,19.19-16.19,32.44-16.94,7.05-.37,13.94.77,20.67,3.42,8.32,3.23,12.67,7.84,13.04,13.83.21,3.45-.67,6.76-2.62,9.94-2.38,3.77-5.59,5.76-9.62,5.97-2.18.11-5.3-.49-9.39-1.79-4.08-1.3-7.21-1.9-9.38-1.79-4.88.21-8.62,2.28-11.21,6.2-2.6,3.92-3.74,8.75-3.42,14.47.32,5.36,2.03,9.88,5.13,13.56,3.11,3.69,6.93,5.37,11.49,5.05,2.07-.11,4.97-1.06,8.7-2.86,3.74-1.8,6.59-2.75,8.55-2.86,3.82-.21,7.18,1.01,10.1,3.66,2.92,2.65,4.48,5.94,4.69,9.86.37,6.31-3.58,11.64-11.85,15.98-6.52,3.55-13.09,5.51-19.72,5.88Z"/>
      <path class="cls-8" d="M1133.5,124.66l-42.22,14.71c2.86,2.81,6.52,4.21,10.97,4.21,2.49,0,5.09-.48,7.8-1.43,3.71-1.33,7.72-4.37,12.04-9.15,4.32-4.77,7.62-7.61,9.9-8.51,1.33-.42,2.65-.63,3.98-.63,3.76,0,7.09,1.36,9.98,4.09,2.89,2.73,4.34,5.93,4.34,9.58,0,5.99-3.69,12.35-11.05,19.09-6.63,6.2-13.92,10.65-21.87,13.36-5.62,1.96-11.27,2.94-16.94,2.94-10.07,0-19.1-3.05-27.07-9.14-7.98-6.09-13.77-14.34-17.38-24.73-1.96-5.56-2.94-11.31-2.94-17.25,0-10.01,2.55-18.98,7.63-26.87,5.57-8.48,13.12-14.34,22.66-17.57,4.77-1.64,9.6-2.47,14.47-2.47,10.02,0,19.32,3.21,27.91,9.62,8.11,5.94,13.62,13.25,16.54,21.94.8,2.18,1.19,4.24,1.19,6.2,0,5.73-3.32,9.73-9.94,12ZM1092.47,103.35c-6.31,2.17-9.51,6.73-9.62,13.67l25.6-8.75c-2.97-3.82-6.63-5.73-10.97-5.73-1.59,0-3.26.26-5.01.8Z"/>
    </g>
  </g>
  <g>
    <path class="cls-22" d="M31.48,148.46c-1.14-2.09-2.38-3.64-3.99-4.56-10.2-7.45-18.64-13.69-26.42-23.13,3.9,26.06,17.7,49.82,38.45,66.27-5.88-13.57-6.74-34.05-6.74-34.05-.04-1.31-.52-3.12-1.3-4.53h0Z"/>
    <path class="cls-9" d="M148.52,178.58c-2.11,1.12-3.68,2.36-4.6,3.95-7.51,10.11-13.81,18.48-23.33,26.19,26.29-3.87,50.26-17.54,66.85-38.11-13.69,5.83-34.35,6.68-34.35,6.68-1.31.04-3.14.52-4.57,1.3h0Z"/>
    <path class="cls-5" d="M131.52,175.73c-5.61-.65-11.33-1.43-17.15-2.33,2.26,4.58,2.45,9.39.33,13.46-4.58,8.83-16.27,16.31-33.94,11.62s-25.17-17.27-24.69-27.19c.22-4.57,2.81-8.64,7.08-11.49-5.5-2.11-10.84-4.27-16.03-6.49-3.33-1.54-6.58-1.38-6.72,3.16,1.45,16.08,2.31,21.66,3.6,26.89,1.74,7.01,3.17,9.99,9.28,12.91,8.54,4.08,16.39,7.19,24.91,9.46,8.51,2.26,16.89,3.45,26.34,4.15,6.76.5,9.51-1.37,14.55-6.59,3.75-3.88,7.3-8.29,16.67-21.5,2.17-4-.57-5.75-4.22-6.07h0Z"/>
    <path class="cls-16" d="M185.85,104.85c-3.82-1.57-8.06-.73-11.74,2.28-3.4,2.65-5.55,5.04-8.33,4.14-2.14-.67-2.81-3.95-1.98-7.64,1.85-9.46,3.43-18.65,4.74-27.55.52-4.04-2.24-8.66-5.94-10.2-8.43-3.33-17.24-6.58-26.43-9.73-3.64-1.15-6.17-3.35-5.68-5.53.61-2.84,3.77-3.48,7.79-5.07,4.47-1.65,7.33-4.87,7.87-8.93,1.67-16.91-34.67-26.48-41.55-11.07-1.66,3.79-.81,8,2.23,11.64,2.68,3.37,5.09,5.5,4.19,8.25-.68,2.13-3.99,2.78-7.71,1.97-9.55-1.83-18.82-3.4-27.8-4.7-4.02-.56-8.75,2.23-10.29,5.88-3.36,8.36-6.63,17.1-9.81,26.21-1.15,3.61-3.38,6.11-5.57,5.63-2.86-.6-3.51-3.73-5.08-7.78-1.7-4.37-4.95-7.2-9.05-7.74-16.98-1.83-26.76,34.48-11.16,41.29,3.82,1.57,8.06.72,11.74-2.22,3.4-2.72,5.54-5.11,8.32-4.22,2.15.67,2.81,3.95,1.99,7.64-1.84,9.47-3.42,18.65-4.72,27.55-.52,4.04,2.27,8.71,5.94,10.19,8.43,3.33,17.25,6.57,26.44,9.71,3.64,1.14,6.17,3.35,5.68,5.53-.61,2.84-3.77,3.48-7.79,5.07-4.47,1.65-7.33,4.87-7.79,8.98-1.82,16.76,34.49,26.48,41.57,11.01,1.58-3.79.73-7.99-2.31-11.63-2.68-3.37-5.09-5.49-4.19-8.25.68-2.13,3.98-2.79,7.71-1.97,9.55,1.82,18.82,3.38,27.8,4.68,4.08.51,8.74-2.22,10.29-5.89,3.35-8.36,6.62-17.1,9.79-26.21,1.15-3.61,3.37-6.12,5.57-5.64,2.86.6,3.51,3.73,5.12,7.72,1.67,4.43,4.92,7.26,9.02,7.79,17.02,1.64,26.7-34.18,11.14-41.2h0Z"/>
    <path class="cls-19" d="M53.96,41.17c-16.23,1.44-21.85,2.29-27.12,3.57-7.07,1.72-10.08,3.14-13.03,9.19-4.11,8.47-7.26,16.25-9.54,24.69C1.99,87.07.79,95.36.08,104.73c-.5,6.7,1.38,9.42,6.64,14.42,3.92,3.72,8.36,7.24,21.69,16.53,4.03,2.15,5.8-.56,6.12-4.19.66-5.57,1.44-11.23,2.35-17-4.62,2.24-9.47,2.42-13.58.33-8.9-4.54-16.14-17.27-11.41-34.79,4.74-17.52,17.12-23.81,27.12-23.33,4.61.22,8.72,2.78,11.59,7.01,2.12-5.45,4.31-10.75,6.54-15.89,1.55-3.3,1.39-6.52-3.19-6.66h0Z"/>
    <path class="cls-18" d="M203.66,91.86c-3.92-3.72-8.36-7.24-21.69-16.53-4.03-2.15-5.8.56-6.12,4.19-.66,5.57-1.44,11.23-2.35,17,4.63-2.24,9.47-2.43,13.58-.33,8.91,4.54,16.45,16.13,11.72,33.65-4.74,17.52-17.43,24.95-27.43,24.48-4.61-.22-8.72-2.78-11.59-7.01-2.13,5.45-4.31,10.74-6.54,15.89-1.55,3.3-1.39,6.52,3.19,6.66,16.23-1.44,21.85-2.29,27.12-3.56,7.08-1.72,10.08-3.14,13.03-9.2,4.11-8.47,7.26-16.25,9.54-24.69,2.28-8.44,3.48-16.74,4.19-26.11.51-6.7-1.38-9.42-6.64-14.42h0Z"/>
    <g class="cls-24">
      <path class="cls-10" d="M3.25,123.31c-.73-.82-1.46-1.67-2.18-2.54.58,3.92,1.4,7.79,2.43,11.59-.18-2.39-.28-4.8-.28-7.24,0-.61.02-1.21.03-1.82h0Z"/>
    </g>
    <path class="cls-7" d="M31.45,148.39c-1.14-2.09-2.38-3.65-3.98-4.57-10.2-7.46-18.63-13.7-26.4-23.15,3.88,26.06,17.66,49.84,38.4,66.3-5.87-13.58-6.71-34.06-6.71-34.06-.04-1.31-.52-3.12-1.3-4.53h0Z"/>
    <path class="cls-1" d="M148.47,178.6c-2.11,1.12-3.68,2.35-4.61,3.95-7.52,10.11-13.82,18.47-23.35,26.17,26.29-3.85,50.28-17.5,66.88-38.06-13.7,5.82-34.36,6.65-34.36,6.65-1.31.04-3.14.52-4.57,1.29h0Z"/>
    <path class="cls-11" d="M131.47,175.74c-5.61-.66-11.33-1.44-17.15-2.34,2.26,4.58,2.44,9.39.32,13.46-4.59,8.82-16.28,16.3-33.95,11.59-17.67-4.71-25.16-17.29-24.67-27.21.23-4.57,2.81-8.64,7.09-11.48-5.5-2.11-10.84-4.28-16.03-6.5-3.33-1.54-6.58-1.39-6.72,3.15,1.44,16.09,2.29,21.66,3.58,26.89,1.73,7.01,3.16,10,9.27,12.92,8.54,4.08,16.39,7.21,24.9,9.48,8.51,2.26,16.89,3.46,26.34,4.17,6.76.51,9.51-1.36,14.55-6.58,3.76-3.88,7.31-8.28,16.69-21.48,2.18-4-.56-5.75-4.22-6.07h0Z"/>
    <path class="cls-14" d="M185.85,104.9c-3.82-1.57-8.06-.73-11.74,2.27-3.4,2.65-5.55,5.04-8.33,4.14-2.14-.68-2.8-3.95-1.98-7.64,1.86-9.46,3.44-18.65,4.76-27.55.53-4.04-2.23-8.67-5.93-10.21-8.43-3.34-17.24-6.59-26.43-9.75-3.64-1.15-6.17-3.36-5.68-5.53.61-2.84,3.77-3.48,7.79-5.06,4.47-1.65,7.34-4.86,7.88-8.93,1.68-16.9-34.65-26.51-41.54-11.1-1.67,3.78-.82,7.99,2.22,11.64,2.68,3.37,5.08,5.5,4.18,8.26-.68,2.13-3.99,2.78-7.71,1.96-9.55-1.84-18.81-3.41-27.79-4.72-4.02-.56-8.75,2.22-10.29,5.88-3.37,8.36-6.64,17.09-9.83,26.2-1.15,3.61-3.38,6.11-5.58,5.63-2.86-.61-3.51-3.74-5.08-7.78-1.69-4.37-4.94-7.21-9.04-7.75-16.98-1.84-26.78,34.46-11.19,41.28,3.82,1.57,8.06.73,11.74-2.21,3.4-2.72,5.54-5.11,8.33-4.21,2.15.67,2.81,3.95,1.98,7.64-1.85,9.46-3.43,18.65-4.74,27.55-.53,4.04,2.26,8.71,5.93,10.2,8.43,3.33,17.24,6.58,26.43,9.73,3.64,1.14,6.17,3.35,5.68,5.53-.61,2.84-3.77,3.48-7.79,5.07-4.47,1.65-7.33,4.87-7.8,8.97-1.83,16.76,34.47,26.5,41.56,11.04,1.58-3.78.73-7.99-2.3-11.64-2.68-3.37-5.09-5.5-4.18-8.25.68-2.13,3.98-2.78,7.71-1.96,9.55,1.83,18.81,3.4,27.79,4.7,4.08.52,8.74-2.21,10.29-5.88,3.36-8.36,6.63-17.09,9.81-26.2,1.15-3.61,3.38-6.12,5.58-5.63,2.86.6,3.51,3.74,5.12,7.72,1.67,4.43,4.91,7.26,9.01,7.8,17.01,1.65,26.72-34.16,11.17-41.19h0Z"/>
    <path class="cls-6" d="M54.01,41.12c-16.23,1.43-21.85,2.27-27.12,3.55-7.07,1.71-10.08,3.13-13.03,9.18-4.12,8.46-7.27,16.25-9.56,24.68C2,86.98.8,95.28.08,104.65c-.51,6.7,1.38,9.42,6.63,14.43,3.92,3.72,8.36,7.25,21.67,16.55,4.03,2.16,5.8-.56,6.12-4.18.66-5.57,1.45-11.23,2.36-17-4.62,2.24-9.47,2.42-13.58.32-8.9-4.55-16.13-17.28-11.38-34.79,4.75-17.51,17.13-23.79,27.13-23.31,4.61.22,8.72,2.79,11.59,7.02,2.13-5.45,4.31-10.74,6.56-15.89,1.55-3.3,1.4-6.52-3.18-6.66h0Z"/>
    <path class="cls-12" d="M203.67,91.92c-3.92-3.72-8.36-7.25-21.68-16.55-4.03-2.16-5.8.56-6.12,4.18-.66,5.57-1.45,11.23-2.36,17,4.63-2.24,9.47-2.42,13.58-.32,8.9,4.55,16.44,16.14,11.69,33.65s-17.44,24.94-27.44,24.46c-4.61-.22-8.72-2.79-11.58-7.02-2.13,5.44-4.32,10.74-6.56,15.89-1.55,3.3-1.4,6.52,3.18,6.66,16.23-1.43,21.85-2.27,27.12-3.54,7.08-1.72,10.08-3.13,13.03-9.19,4.12-8.46,7.27-16.25,9.56-24.68,2.28-8.44,3.49-16.74,4.21-26.11.51-6.7-1.38-9.42-6.63-14.43h0Z"/>
    <path class="cls-2" d="M23,40.25c13.7-5.82,34.36-6.67,34.36-6.67,1.31-.04,3.14-.52,4.57-1.29,2.11-1.12,3.68-2.36,4.6-3.95,7.52-10.11,13.82-18.48,23.34-26.17-26.29,3.86-50.27,17.52-66.87,38.08h0Z"/>
    <path class="cls-20" d="M170.92,23.92c5.87,13.58,6.72,34.05,6.72,34.05.04,1.31.52,3.12,1.3,4.53,1.14,2.09,2.38,3.65,3.98,4.56,10.2,7.45,18.64,13.7,26.41,23.14-3.89-26.06-17.67-49.83-38.41-66.29h0Z"/>
    <g class="cls-23">
      <path class="cls-10" d="M207.13,87.6c.73.82,1.46,1.67,2.18,2.54-.58-3.92-1.4-7.79-2.43-11.59.18,2.39.28,4.8.28,7.24,0,.61-.02,1.21-.03,1.82h0Z"/>
    </g>
    <path class="cls-13" d="M78.92,34.21c5.61.66,11.33,1.44,17.15,2.34-2.26-4.58-2.44-9.39-.32-13.46,4.59-8.82,16.28-16.3,33.95-11.59,17.67,4.71,25.16,17.29,24.67,27.21-.23,4.57-2.81,8.64-7.09,11.48,5.5,2.11,10.84,4.28,16.03,6.5,3.33,1.54,6.58,1.39,6.72-3.15-1.44-16.09-2.29-21.66-3.58-26.89-1.73-7.01-3.16-10-9.27-12.92-8.54-4.08-16.39-7.21-24.9-9.48C123.76,1.99,115.39.79,105.94.08c-6.76-.51-9.51,1.36-14.55,6.58-3.76,3.88-7.31,8.28-16.69,21.48-2.18,4,.56,5.75,4.22,6.07h0Z"/>
  </g>
</svg>