<?xml version="1.0" encoding="UTF-8"?>
<svg id="Layer_1" data-name="Layer 1" xmlns="http://www.w3.org/2000/svg" xmlns:xlink="http://www.w3.org/1999/xlink" viewBox="0 0 210.38 209.96">
  <defs>
    <style>
      .cls-1 {
        fill: url(#linear-gradient-12);
      }

      .cls-1, .cls-2, .cls-3, .cls-4, .cls-5, .cls-6, .cls-7, .cls-8, .cls-9, .cls-10, .cls-11, .cls-12, .cls-13, .cls-14, .cls-15, .cls-16, .cls-17, .cls-18 {
        stroke-width: 0px;
      }

      .cls-2 {
        fill: url(#linear-gradient-17);
      }

      .cls-3 {
        fill: url(#linear-gradient);
      }

      .cls-4 {
        fill: url(#linear-gradient-6);
      }

      .cls-5 {
        fill: url(#linear-gradient-15);
      }

      .cls-6 {
        fill: url(#linear-gradient-11);
      }

      .cls-7 {
        fill: url(#linear-gradient-5);
      }

      .cls-8 {
        fill: #f5f4bc;
      }

      .cls-9 {
        fill: url(#linear-gradient-13);
      }

      .cls-10 {
        fill: url(#linear-gradient-16);
      }

      .cls-11 {
        fill: url(#linear-gradient-14);
      }

      .cls-12 {
        fill: url(#linear-gradient-2);
      }

      .cls-13 {
        fill: url(#linear-gradient-7);
      }

      .cls-14 {
        fill: url(#linear-gradient-3);
      }

      .cls-15 {
        fill: url(#linear-gradient-9);
      }

      .cls-16 {
        fill: url(#linear-gradient-8);
      }

      .cls-19 {
        mask: url(#mask-1);
      }

      .cls-20 {
        mask: url(#mask);
      }

      .cls-17 {
        fill: url(#linear-gradient-10);
      }

      .cls-18 {
        fill: url(#linear-gradient-4);
      }
    </style>
    <linearGradient id="linear-gradient" x1="69.22" y1="468.84" x2="-37.15" y2="579.69" gradientTransform="translate(0 672) scale(1 -1)" gradientUnits="userSpaceOnUse">
      <stop offset="0" stop-color="#0369ae"/>
      <stop offset="1" stop-color="#5ac9ed"/>
    </linearGradient>
    <linearGradient id="linear-gradient-2" x1="155.26" y1="468.97" x2="147.44" y2="552.76" xlink:href="#linear-gradient"/>
    <linearGradient id="linear-gradient-3" x1="87.35" y1="449.98" x2="89.87" y2="573.05" xlink:href="#linear-gradient"/>
    <linearGradient id="linear-gradient-4" x1="47.45" y1="440.83" x2="140.81" y2="644" gradientTransform="translate(0 672) scale(1 -1)" gradientUnits="userSpaceOnUse">
      <stop offset="0" stop-color="#3473b8"/>
      <stop offset="1" stop-color="#62be7b"/>
    </linearGradient>
    <linearGradient id="linear-gradient-5" x1="-2.42" y1="520.79" x2="48.57" y2="631.73" xlink:href="#linear-gradient-4"/>
    <linearGradient id="linear-gradient-6" x1="149.73" y1="474.96" x2="200.71" y2="585.9" xlink:href="#linear-gradient-4"/>
    <linearGradient id="linear-gradient-7" x1="14.26" y1="1699.07" x2="14.26" y2="182.76" gradientTransform="translate(97.89 522.79) scale(1 -1)" gradientUnits="userSpaceOnUse">
      <stop offset="0" stop-color="#fff"/>
      <stop offset="1" stop-color="#000"/>
    </linearGradient>
    <mask id="mask" x="0" y="-13.85" width="224.29" height="146.21" maskUnits="userSpaceOnUse">
      <g id="o">
        <path class="cls-13" d="M0-13.85h224.29v146.21H0V-13.85Z"/>
      </g>
    </mask>
    <linearGradient id="linear-gradient-8" x1="263.03" y1="468.32" x2="156.66" y2="579.17" gradientTransform="translate(-194.23 671.25) rotate(.04) scale(1 -1)" xlink:href="#linear-gradient"/>
    <linearGradient id="linear-gradient-9" x1="349.07" y1="468.45" x2="341.25" y2="552.24" gradientTransform="translate(-194.23 671.25) rotate(.04) scale(1 -1)" xlink:href="#linear-gradient"/>
    <linearGradient id="linear-gradient-10" x1="281.16" y1="449.46" x2="283.68" y2="572.53" gradientTransform="translate(-194.23 671.25) rotate(.04) scale(1 -1)" xlink:href="#linear-gradient"/>
    <linearGradient id="linear-gradient-11" x1="241.26" y1="440.31" x2="334.62" y2="643.48" gradientTransform="translate(-194.23 671.25) rotate(.04) scale(1 -1)" xlink:href="#linear-gradient-4"/>
    <linearGradient id="linear-gradient-12" x1="191.39" y1="520.27" x2="242.38" y2="631.21" gradientTransform="translate(-194.23 671.25) rotate(.04) scale(1 -1)" xlink:href="#linear-gradient-4"/>
    <linearGradient id="linear-gradient-13" x1="343.54" y1="474.44" x2="394.52" y2="585.38" gradientTransform="translate(-194.23 671.25) rotate(.04) scale(1 -1)" xlink:href="#linear-gradient-4"/>
    <linearGradient id="linear-gradient-14" x1="223.03" y1="104.22" x2="461.92" y2="262.73" gradientTransform="translate(-284.34 138.91) rotate(9.08) scale(1 -1)" gradientUnits="userSpaceOnUse">
      <stop offset="0" stop-color="#00a99e"/>
      <stop offset="1" stop-color="#f7d731"/>
    </linearGradient>
    <linearGradient id="linear-gradient-15" x1="1089.94" y1="497.77" x2="1047" y2="653.45" gradientTransform="translate(-918.74 559.21) rotate(4.68) scale(1 -1)" xlink:href="#linear-gradient-14"/>
    <linearGradient id="linear-gradient-16" x1="-962.69" y1="1233.99" x2="-962.69" y2="-282.32" gradientTransform="translate(-864.46 153.2) rotate(-180) scale(1 -1)" xlink:href="#linear-gradient-7"/>
    <mask id="mask-1" x="-13.92" y="78.55" width="224.29" height="146.21" maskUnits="userSpaceOnUse">
      <g id="o-2" data-name="o">
        <path class="cls-10" d="M210.38,224.76H-13.92V78.55h224.29v146.21Z"/>
      </g>
    </mask>
    <linearGradient id="linear-gradient-17" x1="39.88" y1="65.49" x2="221.09" y2="-5.01" gradientTransform="matrix(1,0,0,1,0,0)" xlink:href="#linear-gradient-14"/>
  </defs>
  <path class="cls-3" d="M31.48,148.46c-1.14-2.09-2.38-3.64-3.99-4.56-10.2-7.45-18.64-13.69-26.42-23.13,3.9,26.06,17.7,49.82,38.45,66.27-5.88-13.57-6.74-34.05-6.74-34.05-.04-1.31-.52-3.12-1.3-4.53h0Z"/>
  <path class="cls-12" d="M148.52,178.58c-2.11,1.12-3.68,2.36-4.6,3.95-7.51,10.11-13.81,18.48-23.33,26.19,26.29-3.87,50.26-17.54,66.85-38.11-13.69,5.83-34.35,6.68-34.35,6.68-1.31.04-3.14.52-4.57,1.3h0Z"/>
  <path class="cls-14" d="M131.52,175.73c-5.61-.65-11.33-1.43-17.15-2.33,2.26,4.58,2.45,9.39.33,13.46-4.58,8.83-16.27,16.31-33.94,11.62s-25.17-17.27-24.69-27.19c.22-4.57,2.81-8.64,7.08-11.49-5.5-2.11-10.84-4.27-16.03-6.49-3.33-1.54-6.58-1.38-6.72,3.16,1.45,16.08,2.31,21.66,3.6,26.89,1.74,7.01,3.17,9.99,9.28,12.91,8.54,4.08,16.39,7.19,24.91,9.46,8.51,2.26,16.89,3.45,26.34,4.15,6.76.5,9.51-1.37,14.55-6.59,3.75-3.88,7.3-8.29,16.67-21.5,2.17-4-.57-5.75-4.22-6.07h0Z"/>
  <path class="cls-18" d="M185.85,104.85c-3.82-1.57-8.06-.73-11.74,2.28-3.4,2.65-5.55,5.04-8.33,4.14-2.14-.67-2.81-3.95-1.98-7.64,1.85-9.46,3.43-18.65,4.74-27.55.52-4.04-2.24-8.66-5.94-10.2-8.43-3.33-17.24-6.58-26.43-9.73-3.64-1.15-6.17-3.35-5.68-5.53.61-2.84,3.77-3.48,7.79-5.07,4.47-1.65,7.33-4.87,7.87-8.93,1.67-16.91-34.67-26.48-41.55-11.07-1.66,3.79-.81,8,2.23,11.64,2.68,3.37,5.09,5.5,4.19,8.25-.68,2.13-3.99,2.78-7.71,1.97-9.55-1.83-18.82-3.4-27.8-4.7-4.02-.56-8.75,2.23-10.29,5.88-3.36,8.36-6.63,17.1-9.81,26.21-1.15,3.61-3.38,6.11-5.57,5.63-2.86-.6-3.51-3.73-5.08-7.78-1.7-4.37-4.95-7.2-9.05-7.74-16.98-1.83-26.76,34.48-11.16,41.29,3.82,1.57,8.06.72,11.74-2.22,3.4-2.72,5.54-5.11,8.32-4.22,2.15.67,2.81,3.95,1.99,7.64-1.84,9.47-3.42,18.65-4.72,27.55-.52,4.04,2.27,8.71,5.94,10.19,8.43,3.33,17.25,6.57,26.44,9.71,3.64,1.14,6.17,3.35,5.68,5.53-.61,2.84-3.77,3.48-7.79,5.07-4.47,1.65-7.33,4.87-7.79,8.98-1.82,16.76,34.49,26.48,41.57,11.01,1.58-3.79.73-7.99-2.31-11.63-2.68-3.37-5.09-5.49-4.19-8.25.68-2.13,3.98-2.79,7.71-1.97,9.55,1.82,18.82,3.38,27.8,4.68,4.08.51,8.74-2.22,10.29-5.89,3.35-8.36,6.62-17.1,9.79-26.21,1.15-3.61,3.37-6.12,5.57-5.64,2.86.6,3.51,3.73,5.12,7.72,1.67,4.43,4.92,7.26,9.02,7.79,17.02,1.64,26.7-34.18,11.14-41.2h0Z"/>
  <path class="cls-7" d="M53.96,41.17c-16.23,1.44-21.85,2.29-27.12,3.57-7.07,1.72-10.08,3.14-13.03,9.19-4.11,8.47-7.26,16.25-9.54,24.69C1.99,87.07.79,95.36.08,104.73c-.5,6.7,1.38,9.42,6.64,14.42,3.92,3.72,8.36,7.24,21.69,16.53,4.03,2.15,5.8-.56,6.12-4.19.66-5.57,1.44-11.23,2.35-17-4.62,2.24-9.47,2.42-13.58.33-8.9-4.54-16.14-17.27-11.41-34.79,4.74-17.52,17.12-23.81,27.12-23.33,4.61.22,8.72,2.78,11.59,7.01,2.12-5.45,4.31-10.75,6.54-15.89,1.55-3.3,1.39-6.52-3.19-6.66h0Z"/>
  <path class="cls-4" d="M203.66,91.86c-3.92-3.72-8.36-7.24-21.69-16.53-4.03-2.15-5.8.56-6.12,4.19-.66,5.57-1.44,11.23-2.35,17,4.63-2.24,9.47-2.43,13.58-.33,8.91,4.54,16.45,16.13,11.72,33.65-4.74,17.52-17.43,24.95-27.43,24.48-4.61-.22-8.72-2.78-11.59-7.01-2.13,5.45-4.31,10.74-6.54,15.89-1.55,3.3-1.39,6.52,3.19,6.66,16.23-1.44,21.85-2.29,27.12-3.56,7.08-1.72,10.08-3.14,13.03-9.2,4.11-8.47,7.26-16.25,9.54-24.69,2.28-8.44,3.48-16.74,4.19-26.11.51-6.7-1.38-9.42-6.64-14.42h0Z"/>
  <g class="cls-20">
    <path class="cls-8" d="M3.25,123.31c-.73-.82-1.46-1.67-2.18-2.54.58,3.92,1.4,7.79,2.43,11.59-.18-2.39-.28-4.8-.28-7.24,0-.61.02-1.21.03-1.82h0Z"/>
  </g>
  <path class="cls-16" d="M31.45,148.39c-1.14-2.09-2.38-3.65-3.98-4.57-10.2-7.46-18.63-13.7-26.4-23.15,3.88,26.06,17.66,49.84,38.4,66.3-5.87-13.58-6.71-34.06-6.71-34.06-.04-1.31-.52-3.12-1.3-4.53h0Z"/>
  <path class="cls-15" d="M148.47,178.6c-2.11,1.12-3.68,2.35-4.61,3.95-7.52,10.11-13.82,18.47-23.35,26.17,26.29-3.85,50.28-17.5,66.88-38.06-13.7,5.82-34.36,6.65-34.36,6.65-1.31.04-3.14.52-4.57,1.29h0Z"/>
  <path class="cls-17" d="M131.47,175.74c-5.61-.66-11.33-1.44-17.15-2.34,2.26,4.58,2.44,9.39.32,13.46-4.59,8.82-16.28,16.3-33.95,11.59-17.67-4.71-25.16-17.29-24.67-27.21.23-4.57,2.81-8.64,7.09-11.48-5.5-2.11-10.84-4.28-16.03-6.5-3.33-1.54-6.58-1.39-6.72,3.15,1.44,16.09,2.29,21.66,3.58,26.89,1.73,7.01,3.16,10,9.27,12.92,8.54,4.08,16.39,7.21,24.9,9.48,8.51,2.26,16.89,3.46,26.34,4.17,6.76.51,9.51-1.36,14.55-6.58,3.76-3.88,7.31-8.28,16.69-21.48,2.18-4-.56-5.75-4.22-6.07h0Z"/>
  <path class="cls-6" d="M185.85,104.9c-3.82-1.57-8.06-.73-11.74,2.27-3.4,2.65-5.55,5.04-8.33,4.14-2.14-.68-2.8-3.95-1.98-7.64,1.86-9.46,3.44-18.65,4.76-27.55.53-4.04-2.23-8.67-5.93-10.21-8.43-3.34-17.24-6.59-26.43-9.75-3.64-1.15-6.17-3.36-5.68-5.53.61-2.84,3.77-3.48,7.79-5.06,4.47-1.65,7.34-4.86,7.88-8.93,1.68-16.9-34.65-26.51-41.54-11.1-1.67,3.78-.82,7.99,2.22,11.64,2.68,3.37,5.08,5.5,4.18,8.26-.68,2.13-3.99,2.78-7.71,1.96-9.55-1.84-18.81-3.41-27.79-4.72-4.02-.56-8.75,2.22-10.29,5.88-3.37,8.36-6.64,17.09-9.83,26.2-1.15,3.61-3.38,6.11-5.58,5.63-2.86-.61-3.51-3.74-5.08-7.78-1.69-4.37-4.94-7.21-9.04-7.75-16.98-1.84-26.78,34.46-11.19,41.28,3.82,1.57,8.06.73,11.74-2.21,3.4-2.72,5.54-5.11,8.33-4.21,2.15.67,2.81,3.95,1.98,7.64-1.85,9.46-3.43,18.65-4.74,27.55-.53,4.04,2.26,8.71,5.93,10.2,8.43,3.33,17.24,6.58,26.43,9.73,3.64,1.14,6.17,3.35,5.68,5.53-.61,2.84-3.77,3.48-7.79,5.07-4.47,1.65-7.33,4.87-7.8,8.97-1.83,16.76,34.47,26.5,41.56,11.04,1.58-3.78.73-7.99-2.3-11.64-2.68-3.37-5.09-5.5-4.18-8.25.68-2.13,3.98-2.78,7.71-1.96,9.55,1.83,18.81,3.4,27.79,4.7,4.08.52,8.74-2.21,10.29-5.88,3.36-8.36,6.63-17.09,9.81-26.2,1.15-3.61,3.38-6.12,5.58-5.63,2.86.6,3.51,3.74,5.12,7.72,1.67,4.43,4.91,7.26,9.01,7.8,17.01,1.65,26.72-34.16,11.17-41.19h0Z"/>
  <path class="cls-1" d="M54.01,41.12c-16.23,1.43-21.85,2.27-27.12,3.55-7.07,1.71-10.08,3.13-13.03,9.18-4.12,8.46-7.27,16.25-9.56,24.68C2,86.98.8,95.28.08,104.65c-.51,6.7,1.38,9.42,6.63,14.43,3.92,3.72,8.36,7.25,21.67,16.55,4.03,2.16,5.8-.56,6.12-4.18.66-5.57,1.45-11.23,2.36-17-4.62,2.24-9.47,2.42-13.58.32-8.9-4.55-16.13-17.28-11.38-34.79,4.75-17.51,17.13-23.79,27.13-23.31,4.61.22,8.72,2.79,11.59,7.02,2.13-5.45,4.31-10.74,6.56-15.89,1.55-3.3,1.4-6.52-3.18-6.66h0Z"/>
  <path class="cls-9" d="M203.67,91.92c-3.92-3.72-8.36-7.25-21.68-16.55-4.03-2.16-5.8.56-6.12,4.18-.66,5.57-1.45,11.23-2.36,17,4.63-2.24,9.47-2.42,13.58-.32,8.9,4.55,16.44,16.14,11.69,33.65s-17.44,24.94-27.44,24.46c-4.61-.22-8.72-2.79-11.58-7.02-2.13,5.44-4.32,10.74-6.56,15.89-1.55,3.3-1.4,6.52,3.18,6.66,16.23-1.43,21.85-2.27,27.12-3.54,7.08-1.72,10.08-3.13,13.03-9.19,4.12-8.46,7.27-16.25,9.56-24.68,2.28-8.44,3.49-16.74,4.21-26.11.51-6.7-1.38-9.42-6.63-14.43h0Z"/>
  <path class="cls-11" d="M23,40.25c13.7-5.82,34.36-6.67,34.36-6.67,1.31-.04,3.14-.52,4.57-1.29,2.11-1.12,3.68-2.36,4.6-3.95,7.52-10.11,13.82-18.48,23.34-26.17-26.29,3.86-50.27,17.52-66.87,38.08h0Z"/>
  <path class="cls-5" d="M170.92,23.92c5.87,13.58,6.72,34.05,6.72,34.05.04,1.31.52,3.12,1.3,4.53,1.14,2.09,2.38,3.65,3.98,4.56,10.2,7.45,18.64,13.7,26.41,23.14-3.89-26.06-17.67-49.83-38.41-66.29h0Z"/>
  <g class="cls-19">
    <path class="cls-8" d="M207.13,87.6c.73.82,1.46,1.67,2.18,2.54-.58-3.92-1.4-7.79-2.43-11.59.18,2.39.28,4.8.28,7.24,0,.61-.02,1.21-.03,1.82h0Z"/>
  </g>
  <path class="cls-2" d="M78.92,34.21c5.61.66,11.33,1.44,17.15,2.34-2.26-4.58-2.44-9.39-.32-13.46,4.59-8.82,16.28-16.3,33.95-11.59,17.67,4.71,25.16,17.29,24.67,27.21-.23,4.57-2.81,8.64-7.09,11.48,5.5,2.11,10.84,4.28,16.03,6.5,3.33,1.54,6.58,1.39,6.72-3.15-1.44-16.09-2.29-21.66-3.58-26.89-1.73-7.01-3.16-10-9.27-12.92-8.54-4.08-16.39-7.21-24.9-9.48C123.76,1.99,115.39.79,105.94.08c-6.76-.51-9.51,1.36-14.55,6.58-3.76,3.88-7.31,8.28-16.69,21.48-2.18,4,.56,5.75,4.22,6.07h0Z"/>
</svg>