<?xml version="1.0" encoding="utf-8"?>
<!-- Generator: Adobe Illustrator 27.5.0, SVG Export Plug-In . SVG Version: 6.00 Build 0)  -->
<svg version="1.1" xmlns="http://www.w3.org/2000/svg" xmlns:xlink="http://www.w3.org/1999/xlink" x="0px" y="0px"
	 viewBox="0 0 750 500" style="enable-background:new 0 0 750 500;" xml:space="preserve">
<g id="Background_Simple">
	<g>
		<path style="fill:#92E3A9;" d="M631.074,58.113c-11.234,3.164-22.635,5.72-34.198,7.441
			c-52.457,7.81-173.38,24.535-231.988,22.132c-76.084-3.12-317.194-86.31-335.411-38.475
			C11.259,97.045,16.618,447.483,51.98,454.762c35.363,7.279,160.74-49.914,234.681-51.994
			c73.94-2.08,250.755,54.073,323.624,57.193s79.298-8.319,96.444-69.672c17.146-61.352,35.363-263.088,32.148-309.882
			C736.144,40.632,658.311,50.444,631.074,58.113z"/>
		<path style="opacity:0.7;fill:#FFFFFF;" d="M631.074,58.113c-11.234,3.164-22.635,5.72-34.198,7.441
			c-52.457,7.81-173.38,24.535-231.988,22.132c-76.084-3.12-317.194-86.31-335.411-38.475
			C11.259,97.045,16.618,447.483,51.98,454.762c35.363,7.279,160.74-49.914,234.681-51.994
			c73.94-2.08,250.755,54.073,323.624,57.193s79.298-8.319,96.444-69.672c17.146-61.352,35.363-263.088,32.148-309.882
			C736.144,40.632,658.311,50.444,631.074,58.113z"/>
	</g>
</g>
<g id="Plants">
	<path style="opacity:0.15;" d="M28.763,218.795c12.327,2.935,27.907,0.724,32.686-0.079c-0.035,6.626,0.139,13.598,0.792,20.847
		c0.896,10.096,2.353,20.67,5.264,31.369c0.033,0.121,0.083,0.243,0.116,0.363c-1.823-2.865-7.19-10.705-7.67-11.261
		c-6.773-7.828-24.461-18.973-35.132-14.442c-7.688,3.265-9.94,12.467-6.079,19.491c3.942,7.171,13.378,10.717,21.029,11.832
		c8.628,1.258,26.788-4.008,28.231-4.433c2.866,10.165,6.633,20.363,11.013,30.473c2.497,5.784,5.193,11.531,7.969,17.259
		c-1.657-2.427-3.156-4.583-3.397-4.863c-6.774-7.829-24.463-18.973-35.132-14.442c-7.688,3.264-9.938,12.468-6.079,19.489
		c3.941,7.173,13.379,10.718,21.029,11.834c7.764,1.131,23.335-3.047,27.442-4.209c1.088,2.186,2.149,4.382,3.245,6.564
		c5.259,10.47,10.553,20.896,15.429,31.281c1.722,3.66,3.281,7.325,4.857,10.989c-1.474-2.154-2.733-3.956-2.953-4.21
		c-6.773-7.828-24.461-18.973-35.132-14.442c-7.687,3.264-9.939,12.468-6.079,19.49c3.943,7.171,13.379,10.717,21.03,11.832
		c7.409,1.079,21.816-2.649,26.702-4.004c1.498,3.799,3.008,7.602,4.289,11.352c0.817,2.58,1.783,5.008,2.459,7.644
		c0.725,2.597,1.442,5.168,2.153,7.713c1.188,4.954,2.445,10.057,3.482,14.918c0.749,3.375,1.398,6.605,2.061,9.857
		c-1.67-3.662-5.091-10.762-5.445-11.323c-5.508-8.764-21.304-22.46-32.538-19.597c-8.092,2.063-11.713,10.817-8.961,18.344
		c2.811,7.686,11.601,12.621,18.994,14.882c8.14,2.489,26.165,0.214,28.414-0.085c1.08,5.386,2.079,10.634,2.942,15.602
		c0.72,4.083,1.37,7.997,1.965,11.749h7.243c-0.741-4.132-1.554-8.469-2.456-13.01c-1.075-5.474-2.332-11.301-3.68-17.271
		c1.355-0.537,9.042-3.647,15.852-7.454c5.934,6.425,21.136,13.945,23.106,14.902c-2.07,5.087-4.132,10.016-6.152,14.636
		c-1.233,2.839-2.44,5.549-3.632,8.197h7.67c0.756-1.804,1.518-3.64,2.289-5.525c2.123-5.158,4.289-10.711,6.458-16.436
		c2.181,0.456,20.024,4.082,28.339,2.203c7.541-1.704,16.675-5.97,20.05-13.425c3.306-7.3,0.348-16.301-7.57-18.96
		c-10.989-3.692-27.762,8.789-33.908,17.118c-0.363,0.491-3.701,6.262-5.748,9.938c0.875-2.344,1.75-4.608,2.62-7.032
		c1.754-4.78,3.363-9.602,5.114-14.785c0.758-2.531,1.522-5.09,2.294-7.673c0.822-2.544,1.365-5.337,2.066-8.029
		c1.493-6.274,2.702-12.705,3.776-19.212c4.19,1.525,19.146,6.728,26.895,6.184c7.711-0.542,17.386-3.376,21.852-10.233
		c4.372-6.715,2.813-16.06-4.609-19.889c-10.303-5.312-28.773,4.482-36.111,11.785c-0.458,0.456-5.133,6.287-7.641,9.539
		c0.616-3.916,1.25-7.821,1.743-11.803c1.427-11.494,2.514-23.173,3.649-34.818c0.346-3.568,0.734-7.117,1.108-10.674
		c1.484,0.56,19.129,7.128,27.806,6.518c7.712-0.541,17.386-3.375,21.852-10.233c4.372-6.715,2.813-16.061-4.61-19.889
		c-10.302-5.313-28.774,4.482-36.11,11.783c-0.553,0.551-7.268,8.951-8.872,11.171c0.827-7.83,1.725-15.626,2.921-23.275
		c1.637-10.557,3.826-20.825,6.682-30.614c0.691,0.262,19.075,7.2,27.962,6.576c7.713-0.541,17.387-3.375,21.853-10.233
		c4.372-6.715,2.813-16.06-4.61-19.888c-10.303-5.314-28.773,4.481-36.11,11.783c-0.482,0.48-5.603,6.872-7.969,9.971
		c-0.324-0.168-0.265-0.137-0.589-0.305c3.186-10.45,7.589-20.172,12.159-29.069c2.637-5.158,5.445-9.941,8.283-14.534
		c3.291,1.643,18.416,8.987,26.477,9.31c7.726,0.308,17.653-1.446,22.845-7.771c5.084-6.194,4.56-15.655-2.398-20.274
		c-9.657-6.414-29.09,1.295-37.185,7.746c-0.303,0.242-2.339,2.251-4.533,4.456c0.016-0.484,0.031-1.044,0.04-1.683
		c0.322-0.5,0.646-1.017,0.967-1.497c4.849-7.303,9.739-13.691,14.116-19.315c2.516-3.176,4.852-6,7.066-8.619
		c4.072-0.072,20.474-0.571,27.646-3.936c6.998-3.286,15-9.418,16.693-17.424c1.657-7.84-3.168-15.995-11.471-16.889
		c-11.526-1.241-25.221,14.554-29.434,24.011c-0.362,0.818-4.586,14.252-4.373,14.251c0,0,0.198-0.003,0.246-0.004
		c-2.182,2.477-4.491,5.158-6.957,8.137c-4.483,5.508-9.496,11.772-14.494,18.947c-0.093-11.149-2.065-34.303-16.78-35.705
		c-19.423-1.85-24.973,20.348-12.949,32.372c8.434,8.434,19.577,9.582,25.492,9.519c-3.724,5.559-7.471,11.535-10.963,18.012
		c-4.821,8.915-9.439,18.537-12.913,29.068c-0.04,0.119-0.065,0.248-0.104,0.367c0.059-3.395-0.091-12.895-0.186-13.624
		c-1.33-10.265-9.935-29.32-21.335-31.428c-8.213-1.517-15.168,4.917-15.822,12.904c-0.668,8.155,5.245,16.319,11.012,21.47
		c6.503,5.809,24.553,11.434,25.992,11.877c-3.217,10.059-5.701,20.643-7.626,31.493c-1.107,6.201-2.029,12.482-2.874,18.791
		c-0.043-2.938-0.103-5.563-0.151-5.93c-1.331-10.266-9.936-29.319-21.335-31.426c-8.213-1.518-15.168,4.916-15.822,12.902
		c-0.669,8.157,5.245,16.319,11.012,21.471c5.851,5.225,21.144,10.331,25.209,11.628c-0.298,2.424-0.624,4.841-0.913,7.265
		c-1.391,11.633-2.727,23.25-4.388,34.601c-0.583,4.002-1.305,7.92-2.012,11.844c-0.041-2.609-0.097-4.806-0.14-5.14
		c-1.331-10.266-9.935-29.319-21.335-31.426c-8.213-1.518-15.168,4.915-15.822,12.903c-0.668,8.154,5.247,16.319,11.013,21.469
		c5.583,4.987,19.657,9.826,24.48,11.39c-0.847,3.995-1.686,8-2.686,11.834c-0.742,2.603-1.275,5.159-2.165,7.733
		c-0.829,2.565-1.648,5.105-2.46,7.621c-1.742,4.786-3.509,9.736-5.326,14.364c-1.239,3.227-2.479,6.279-3.719,9.359
		c0.628-3.976,1.69-11.785,1.706-12.448c0.159-6.876-2.283-18.056-7.143-25.914c0.029-1.015-0.03-2.029-0.19-3.034
		c-1.271-7.911-8.704-13.787-16.775-11.638c-11.202,2.983-18.306,22.646-18.838,32.983c-0.032,0.61,0.369,7.264,0.689,11.459
		c-0.564-2.438-1.083-4.809-1.695-7.31c-1.174-4.955-2.492-9.865-3.891-15.153c-0.765-2.529-1.539-5.083-2.32-7.664
		c-0.718-2.576-1.807-5.204-2.705-7.836c-2.217-6.057-4.756-12.089-7.449-18.108c4.336-1.039,19.681-4.951,25.842-9.679
		c6.133-4.706,12.639-12.407,12.581-20.59c-0.058-8.013-6.513-14.947-14.817-14.045c-11.524,1.252-21.527,19.61-23.618,29.749
		c-0.13,0.633-0.814,8.075-1.109,12.172c-1.648-3.606-3.273-7.213-5.058-10.806c-5.151-10.373-10.687-20.713-16.165-31.053
		c-1.68-3.167-3.314-6.341-4.965-9.513c1.548-0.353,19.887-4.609,26.788-9.904c6.134-4.706,12.64-12.407,12.582-20.59
		c-0.058-8.012-6.513-14.947-14.816-14.045c-11.525,1.252-21.526,19.611-23.618,29.748c-0.157,0.764-1.124,11.476-1.237,14.211
		c-3.629-6.987-7.182-13.984-10.403-21.024c-4.459-9.709-8.299-19.479-11.316-29.221c0.72-0.163,19.882-4.517,26.951-9.941
		c6.134-4.706,12.64-12.406,12.581-20.59c-0.057-8.012-6.514-14.947-14.816-14.045c-11.526,1.251-21.527,19.61-23.618,29.748
		c-0.138,0.667-0.883,8.831-1.146,12.719c-0.361,0.039-0.295,0.031-0.657,0.07c-3.109-10.476-4.8-21.014-5.896-30.958
		c-0.646-5.757-0.943-11.297-1.109-16.692c3.652-0.444,20.318-2.664,27.219-6.842c6.613-4.005,13.926-10.943,14.767-19.083
		c0.823-7.971-4.833-15.573-13.185-15.588c-11.592-0.021-23.549,17.129-26.741,26.975c-0.174,0.535-1.336,6.174-2.126,10.293
		c-0.037-2.435-0.122-4.949-0.111-7.284c0.015-8.766,0.57-16.793,1.118-23.897c0.345-4.038,0.737-7.681,1.139-11.087
		c3.355-2.307,16.762-11.771,20.887-18.535c4.024-6.6,7.316-16.129,4.312-23.741c-2.944-7.453-11.466-11.593-18.885-7.758
		c-10.298,5.323-13.007,26.053-11.303,36.265c0.148,0.882,4.037,14.417,4.214,14.298c0,0,0.164-0.112,0.202-0.139
		c-0.453,3.27-0.901,6.781-1.313,10.624c-0.705,7.107-1.436,15.144-1.643,23.945c-0.042,1.614-0.065,3.28-0.087,4.944
		c-4.418-6.808-18.356-25.906-33.416-21.852C9.815,199.146,14.026,215.286,28.763,218.795z"/>
	<path style="opacity:0.15;" d="M702.164,261.934c-10.181,2.424-23.048,0.598-26.995-0.065c0.029,5.472-0.115,11.231-0.655,17.218
		c-0.74,8.338-1.943,17.071-4.348,25.907c-0.027,0.1-0.069,0.2-0.096,0.3c1.505-2.366,5.938-8.841,6.335-9.3
		c5.594-6.465,20.203-15.67,29.015-11.928c6.349,2.697,8.209,10.297,5.021,16.097c-3.256,5.923-11.049,8.852-17.368,9.772
		c-7.126,1.039-22.124-3.31-23.316-3.661c-2.367,8.396-5.478,16.818-9.096,25.168c-2.062,4.777-4.289,9.524-6.582,14.254
		c1.368-2.004,2.606-3.785,2.806-4.016c5.594-6.466,20.204-15.67,29.016-11.928c6.349,2.696,8.208,10.297,5.021,16.096
		c-3.255,5.924-11.049,8.852-17.368,9.773c-6.412,0.934-19.273-2.517-22.664-3.476c-0.898,1.806-1.775,3.619-2.68,5.421
		c-4.344,8.647-8.716,17.258-12.743,25.835c-1.422,3.023-2.71,6.05-4.011,9.075c1.218-1.779,2.257-3.267,2.439-3.477
		c5.594-6.465,20.203-15.67,29.015-11.928c6.349,2.696,8.208,10.297,5.021,16.097c-3.256,5.923-11.049,8.851-17.368,9.772
		c-6.119,0.892-18.018-2.187-22.053-3.307c-1.237,3.138-2.484,6.279-3.542,9.376c-0.674,2.131-1.472,4.136-2.031,6.313
		c-0.599,2.145-1.191,4.268-1.778,6.37c-0.981,4.091-2.019,8.306-2.876,12.321c-0.618,2.787-1.154,5.455-1.702,8.141
		c1.379-3.024,4.205-8.889,4.497-9.352c4.549-7.238,17.595-18.55,26.873-16.185c6.683,1.704,9.674,8.934,7.401,15.15
		c-2.321,6.348-9.581,10.423-15.687,12.291c-6.723,2.055-21.609,0.177-23.467-0.07c-0.892,4.448-1.717,8.783-2.43,12.885
		c-0.595,3.372-1.131,6.605-1.623,9.703h-5.982c0.612-3.413,1.284-6.995,2.029-10.745c0.888-4.521,1.926-9.333,3.039-14.264
		c-1.119-0.444-7.467-3.012-13.092-6.156c-4.901,5.307-17.457,11.517-19.083,12.307c1.71,4.202,3.413,8.273,5.081,12.088
		c1.019,2.344,2.016,4.583,3,6.77H580.8c-0.624-1.49-1.254-3.006-1.891-4.563c-1.753-4.26-3.542-8.846-5.334-13.574
		c-1.802,0.377-16.537,3.371-23.405,1.82c-6.228-1.407-13.772-4.931-16.559-11.088c-2.73-6.029-0.287-13.463,6.252-15.659
		c9.075-3.049,22.928,7.258,28.004,14.138c0.3,0.405,3.056,5.172,4.747,8.207c-0.723-1.936-1.445-3.806-2.164-5.808
		c-1.448-3.948-2.778-7.931-4.223-12.211c-0.626-2.09-1.257-4.204-1.894-6.337c-0.679-2.101-1.128-4.408-1.707-6.631
		c-1.233-5.182-2.232-10.493-3.119-15.867c-3.461,1.26-15.813,5.556-22.212,5.108c-6.369-0.448-14.359-2.788-18.047-8.452
		c-3.611-5.546-2.323-13.264,3.807-16.427c8.509-4.387,23.764,3.702,29.824,9.733c0.378,0.376,4.239,5.192,6.31,7.878
		c-0.509-3.234-1.032-6.46-1.439-9.748c-1.179-9.493-2.076-19.139-3.014-28.757c-0.285-2.947-0.606-5.878-0.915-8.816
		c-1.226,0.462-15.799,5.887-22.965,5.383c-6.37-0.447-14.359-2.787-18.048-8.451c-3.611-5.546-2.323-13.265,3.807-16.426
		c8.509-4.388,23.764,3.702,29.823,9.732c0.457,0.455,6.003,7.392,7.327,9.226c-0.683-6.467-1.424-12.906-2.412-19.223
		c-1.352-8.719-3.16-17.199-5.519-25.284c-0.571,0.216-15.754,5.946-23.094,5.432c-6.37-0.447-14.36-2.788-18.048-8.452
		c-3.611-5.546-2.323-13.264,3.807-16.425c8.51-4.389,23.763,3.701,29.823,9.731c0.398,0.396,4.628,5.676,6.582,8.235
		c0.268-0.138,0.219-0.113,0.486-0.252c-2.631-8.631-6.268-16.66-10.042-24.008c-2.178-4.26-4.497-8.21-6.841-12.004
		c-2.718,1.357-15.21,7.422-21.867,7.689c-6.381,0.254-14.579-1.194-18.867-6.418c-4.199-5.116-3.766-12.93,1.981-16.745
		c7.976-5.297,24.026,1.07,30.711,6.397c0.25,0.2,1.932,1.859,3.743,3.68c-0.013-0.4-0.025-0.862-0.033-1.39
		c-0.266-0.413-0.534-0.84-0.799-1.236c-4.005-6.032-8.044-11.307-11.659-15.952c-2.078-2.623-4.007-4.955-5.835-7.118
		c-3.363-0.059-16.909-0.471-22.833-3.251c-5.779-2.714-12.389-7.778-13.787-14.391c-1.368-6.475,2.616-13.211,9.474-13.948
		c9.519-1.025,20.83,12.02,24.309,19.831c0.299,0.675,3.788,11.771,3.612,11.77c0,0-0.163-0.002-0.203-0.003
		c1.802,2.046,3.709,4.26,5.746,6.721c3.703,4.549,7.843,9.722,11.971,15.649c0.076-9.208,1.706-28.331,13.859-29.489
		c16.042-1.528,20.625,16.805,10.694,26.736c-6.966,6.966-16.169,7.914-21.054,7.861c3.076,4.591,6.17,9.526,9.054,14.876
		c3.982,7.363,7.795,15.31,10.665,24.007c0.033,0.098,0.054,0.205,0.086,0.303c-0.048-2.804,0.075-10.65,0.153-11.252
		c1.099-8.478,8.206-24.215,17.62-25.956c6.783-1.253,12.527,4.061,13.068,10.657c0.551,6.735-4.332,13.478-9.095,17.732
		c-5.371,4.797-20.279,9.444-21.467,9.809c2.657,8.308,4.708,17.049,6.298,26.01c0.915,5.121,1.676,10.309,2.373,15.519
		c0.035-2.426,0.085-4.595,0.125-4.898c1.099-8.478,8.206-24.214,17.62-25.955c6.783-1.254,12.527,4.06,13.068,10.656
		c0.553,6.737-4.332,13.478-9.095,17.733c-4.832,4.315-17.463,8.533-20.82,9.603c0.246,2.002,0.515,3.998,0.754,6
		c1.149,9.608,2.252,19.202,3.624,28.577c0.481,3.305,1.078,6.541,1.662,9.782c0.034-2.155,0.08-3.97,0.116-4.245
		c1.099-8.479,8.205-24.215,17.621-25.954c6.783-1.254,12.527,4.059,13.068,10.656c0.552,6.735-4.333,13.478-9.096,17.732
		c-4.611,4.119-16.234,8.115-20.218,9.407c0.7,3.3,1.392,6.607,2.218,9.773c0.613,2.15,1.053,4.261,1.788,6.386
		c0.684,2.119,1.361,4.216,2.031,6.294c1.439,3.953,2.898,8.041,4.398,11.863c1.023,2.665,2.047,5.186,3.071,7.729
		c-0.519-3.283-1.396-9.733-1.409-10.28c-0.132-5.679,1.886-14.912,5.899-21.402c-0.024-0.838,0.024-1.676,0.157-2.505
		c1.05-6.534,7.189-11.386,13.854-9.612c9.252,2.464,15.119,18.703,15.558,27.241c0.026,0.503-0.304,5.999-0.569,9.464
		c0.466-2.013,0.894-3.971,1.4-6.037c0.97-4.092,2.058-8.147,3.214-12.515c0.632-2.089,1.271-4.198,1.916-6.33
		c0.593-2.127,1.492-4.298,2.234-6.472c1.831-5.003,3.928-9.984,6.152-14.955c-3.582-0.858-16.254-4.089-21.343-7.994
		c-5.066-3.887-10.439-10.247-10.391-17.005c0.048-6.617,5.379-12.345,12.237-11.6c9.518,1.034,17.779,16.196,19.506,24.57
		c0.108,0.523,0.672,6.669,0.916,10.053c1.361-2.978,2.703-5.957,4.177-8.925c4.254-8.567,8.826-17.107,13.351-25.647
		c1.388-2.615,2.737-5.237,4.101-7.857c-1.278-0.292-16.425-3.807-22.124-8.18c-5.066-3.887-10.44-10.247-10.391-17.005
		c0.048-6.617,5.379-12.345,12.237-11.6c9.518,1.034,17.779,16.197,19.506,24.569c0.129,0.631,0.928,9.478,1.022,11.737
		c2.997-5.771,5.932-11.55,8.592-17.364c3.683-8.018,6.854-16.088,9.345-24.134c-0.595-0.134-16.42-3.731-22.258-8.21
		c-5.066-3.886-10.439-10.246-10.391-17.005c0.047-6.617,5.38-12.345,12.237-11.599c9.519,1.033,17.779,16.196,19.506,24.569
		c0.114,0.551,0.729,7.294,0.947,10.505c0.299,0.032,0.244,0.026,0.543,0.058c2.567-8.652,3.964-17.356,4.87-25.568
		c0.534-4.755,0.779-9.33,0.916-13.786c-3.016-0.367-16.78-2.2-22.48-5.651c-5.462-3.307-11.501-9.038-12.196-15.761
		c-0.679-6.583,3.992-12.862,10.889-12.874c9.574-0.018,19.449,14.147,22.086,22.279c0.144,0.442,1.103,5.099,1.755,8.501
		c0.03-2.011,0.1-4.087,0.092-6.016c-0.012-7.24-0.471-13.869-0.924-19.736c-0.285-3.335-0.609-6.344-0.941-9.156
		c-2.771-1.905-13.844-9.722-17.25-15.308c-3.323-5.451-6.042-13.321-3.561-19.607c2.431-6.155,9.47-9.575,15.597-6.408
		c8.505,4.396,10.742,21.517,9.335,29.951c-0.122,0.729-3.334,11.907-3.48,11.809c0,0-0.135-0.092-0.167-0.115
		c0.374,2.701,0.744,5.601,1.084,8.775c0.582,5.869,1.186,12.507,1.357,19.776c0.035,1.333,0.053,2.709,0.072,4.084
		c3.649-5.622,15.161-21.396,27.598-18.048C717.813,245.706,714.335,259.036,702.164,261.934z"/>
</g>
<g id="Graphics">
	<g style="opacity:0.3;">
		<path style="fill:none;stroke:#000000;stroke-linecap:round;stroke-linejoin:round;stroke-miterlimit:10;" d="M679.71,52.399
			v86.769H574.558V52.399h35.244v3.508c0,2.117,1.725,3.842,3.842,3.842s3.842-1.725,3.842-3.842v-3.508h19.297v3.508
			c0,2.117,1.725,3.842,3.842,3.842c2.117,0,3.827-1.725,3.827-3.842v-3.508H679.71z"/>
		<g>
			
				<rect x="580.91" y="76.821" style="fill:none;stroke:#000000;stroke-linecap:round;stroke-linejoin:round;stroke-miterlimit:10;" width="13.206" height="13.206"/>
			
				<rect x="600.72" y="76.821" style="fill:none;stroke:#000000;stroke-linecap:round;stroke-linejoin:round;stroke-miterlimit:10;" width="13.206" height="13.206"/>
			
				<rect x="620.529" y="76.821" style="fill:none;stroke:#000000;stroke-linecap:round;stroke-linejoin:round;stroke-miterlimit:10;" width="13.206" height="13.206"/>
			
				<rect x="640.338" y="76.821" style="fill:none;stroke:#000000;stroke-linecap:round;stroke-linejoin:round;stroke-miterlimit:10;" width="13.206" height="13.206"/>
			
				<rect x="660.147" y="76.821" style="fill:none;stroke:#000000;stroke-linecap:round;stroke-linejoin:round;stroke-miterlimit:10;" width="13.206" height="13.206"/>
		</g>
		<g>
			
				<rect x="580.91" y="97.18" style="fill:none;stroke:#000000;stroke-linecap:round;stroke-linejoin:round;stroke-miterlimit:10;" width="13.206" height="13.206"/>
			
				<rect x="600.72" y="97.18" style="fill:none;stroke:#000000;stroke-linecap:round;stroke-linejoin:round;stroke-miterlimit:10;" width="13.206" height="13.206"/>
			
				<rect x="620.529" y="97.18" style="fill:none;stroke:#000000;stroke-linecap:round;stroke-linejoin:round;stroke-miterlimit:10;" width="13.206" height="13.206"/>
			
				<rect x="640.338" y="97.18" style="fill:none;stroke:#000000;stroke-linecap:round;stroke-linejoin:round;stroke-miterlimit:10;" width="13.206" height="13.206"/>
			
				<rect x="660.147" y="97.18" style="fill:none;stroke:#000000;stroke-linecap:round;stroke-linejoin:round;stroke-miterlimit:10;" width="13.206" height="13.206"/>
		</g>
		<g>
			
				<rect x="580.91" y="117.54" style="fill:none;stroke:#000000;stroke-linecap:round;stroke-linejoin:round;stroke-miterlimit:10;" width="13.206" height="13.206"/>
			
				<rect x="600.72" y="117.54" style="fill:none;stroke:#000000;stroke-linecap:round;stroke-linejoin:round;stroke-miterlimit:10;" width="13.206" height="13.206"/>
			
				<rect x="620.529" y="117.54" style="fill:none;stroke:#000000;stroke-linecap:round;stroke-linejoin:round;stroke-miterlimit:10;" width="13.206" height="13.206"/>
			
				<rect x="640.338" y="117.54" style="fill:none;stroke:#000000;stroke-linecap:round;stroke-linejoin:round;stroke-miterlimit:10;" width="13.206" height="13.206"/>
			
				<rect x="660.147" y="117.54" style="fill:none;stroke:#000000;stroke-linecap:round;stroke-linejoin:round;stroke-miterlimit:10;" width="13.206" height="13.206"/>
		</g>
		<g>
			<g>
				<path style="stroke:#000000;stroke-linecap:round;stroke-linejoin:round;stroke-miterlimit:10;" d="M617.486,42.7v13.207
					c0,2.117-1.725,3.842-3.842,3.842s-3.842-1.725-3.842-3.842V42.7c0-2.117,1.725-3.827,3.842-3.827S617.486,40.583,617.486,42.7z
					"/>
			</g>
			<g>
				<path style="stroke:#000000;stroke-linecap:round;stroke-linejoin:round;stroke-miterlimit:10;" d="M644.451,42.7v13.207
					c0,2.117-1.711,3.842-3.827,3.842c-2.117,0-3.842-1.725-3.842-3.842V42.7c0-2.117,1.725-3.827,3.842-3.827
					C642.741,38.872,644.451,40.583,644.451,42.7z"/>
			</g>
		</g>
	</g>
	<g style="opacity:0.3;">
		
			<rect x="387.921" y="424.899" style="fill:none;stroke:#000000;stroke-linecap:round;stroke-linejoin:round;stroke-miterlimit:10;" width="14.568" height="33.743"/>
		
			<rect x="407.417" y="407.653" style="fill:none;stroke:#000000;stroke-linecap:round;stroke-linejoin:round;stroke-miterlimit:10;" width="14.568" height="50.989"/>
		
			<rect x="426.913" y="385.907" style="fill:none;stroke:#000000;stroke-linecap:round;stroke-linejoin:round;stroke-miterlimit:10;" width="14.568" height="72.735"/>
		
			<rect x="446.409" y="370.91" style="fill:none;stroke:#000000;stroke-linecap:round;stroke-linejoin:round;stroke-miterlimit:10;" width="14.568" height="87.732"/>
	</g>
	<g>
		<g style="opacity:0.3;">
			
				<ellipse transform="matrix(0.414 -0.9103 0.9103 0.414 36.7407 211.9781)" style="fill:none;stroke:#000000;stroke-miterlimit:10;" cx="183.013" cy="77.453" rx="53.111" ry="53.111"/>
			
				<ellipse transform="matrix(0.7071 -0.7071 0.7071 0.7071 -1.1641 152.0951)" style="fill:none;stroke:#000000;stroke-miterlimit:10;" cx="183.013" cy="77.453" rx="42.531" ry="42.531"/>
			
				<ellipse transform="matrix(0.7071 -0.7071 0.7071 0.7071 -1.1641 152.0951)" style="fill:none;stroke:#000000;stroke-miterlimit:10;" cx="183.013" cy="77.453" rx="27.23" ry="27.23"/>
			
				<ellipse transform="matrix(0.7071 -0.7071 0.7071 0.7071 -1.1641 152.0951)" style="fill:none;stroke:#000000;stroke-miterlimit:10;" cx="183.013" cy="77.453" rx="15.389" ry="15.389"/>
			<path style="fill:none;stroke:#000000;stroke-miterlimit:10;" d="M189.511,77.453c0-3.589-2.909-6.498-6.498-6.498
				c-3.589,0-6.498,2.909-6.498,6.498s2.909,6.498,6.498,6.498C186.602,83.95,189.511,81.041,189.511,77.453z"/>
		</g>
		<g>
			<g>
				<line style="fill:#B2B2B2;" x1="180.372" y1="77.453" x2="89.356" y2="77.453"/>
			</g>
			<g>
				<g>
					<path style="fill:#B2B2B2;" d="M181.725,78.74h-71.427v-2.575h71.427c0.711,0,1.288,0.576,1.288,1.287l0,0
						C183.013,78.164,182.437,78.74,181.725,78.74z"/>
				</g>
				<g>
					<g>
						<polygon style="fill:#B2B2B2;" points="103.952,68.294 104.349,68.754 111.815,76.155 89.48,76.155 81.488,68.294 						"/>
					</g>
					<g>
						<path style="fill:#B2B2B2;" d="M81.488,86.312l7.992-7.594h22.336c-2.907,2.18-5.547,4.755-7.929,7.594H81.488z"/>
					</g>
				</g>
			</g>
		</g>
	</g>
</g>
<g id="Floor">
	<g>
		
			<line style="fill:none;stroke:#263238;stroke-linecap:round;stroke-linejoin:round;stroke-miterlimit:10;" x1="706.168" y1="466.577" x2="734.378" y2="466.577"/>
		
			<line style="fill:none;stroke:#263238;stroke-linecap:round;stroke-linejoin:round;stroke-miterlimit:10;" x1="239.822" y1="466.577" x2="694.708" y2="466.577"/>
		
			<line style="fill:none;stroke:#263238;stroke-linecap:round;stroke-linejoin:round;stroke-miterlimit:10;" x1="22.076" y1="466.577" x2="232.77" y2="466.577"/>
	</g>
</g>
<g id="Character_3">
	<g>
		<g>
			<path style="fill:#808080;stroke:#263238;stroke-linecap:round;stroke-linejoin:round;stroke-miterlimit:10;" d="M496.09,402.172
				l2.382,18c0,0,2.912,22.235,3.573,27.397c0.662,5.162,0.397,18.794,0.397,18.794h-10.191l-0.132-19.191l0.265-32.823
				L496.09,402.172z"/>
			<path style="fill:#FFFFFF;stroke:#263238;stroke-linecap:round;stroke-linejoin:round;stroke-miterlimit:10;" d="
				M502.495,460.825c-0.005,3.151-0.052,5.538-0.052,5.538h-10.191l-0.056-8.063L502.495,460.825z"/>
			<path style="fill:#FFFFFF;stroke:#263238;stroke-linecap:round;stroke-linejoin:round;stroke-miterlimit:10;" d="
				M502.473,464.245c-0.009,0.875-0.02,1.532-0.025,1.866c0,0.008,0,0.017,0,0.025c-0.001,0.045-0.001,0.086-0.002,0.117
				c0,0.002,0,0.003,0,0.005c-0.001,0.067-0.002,0.104-0.002,0.104h-10.191l-0.015-2.118H502.473z"/>
		</g>
		<g>
			<path style="fill:#FFFFFF;stroke:#263238;stroke-linecap:round;stroke-linejoin:round;stroke-miterlimit:10;" d="
				M481.002,456.569c0,0-3.838,3.838-5.691,4.632c-1.853,0.794-4.765,1.059-5.162,1.985c-0.397,0.926-0.132,3.574-0.132,3.574
				h25.279c0,0,0.662-2.25,0.397-3.838c-0.265-1.588-0.662-2.382-0.662-2.382S482.59,456.436,481.002,456.569z"/>
			<path style="fill:#FFFFFF;stroke:#263238;stroke-linecap:round;stroke-linejoin:round;stroke-miterlimit:10;" d="M495.296,466.76
				h-25.279c0,0-0.108-1.091-0.081-2.118h25.769C495.586,465.771,495.296,466.76,495.296,466.76z"/>
		</g>
		<g>
			<path style="fill:#A1A1A1;stroke:#263238;stroke-linecap:round;stroke-linejoin:round;stroke-miterlimit:10;" d="
				M502.576,376.628c0,0-0.132,8.073-1.323,10.323c-1.191,2.25-3.574,6.088-3.574,6.088s-3.044,25.014-2.515,27.397
				c0.529,2.382,2.25,8.603,2.118,12.97c-0.132,4.368-2.382,22.765-2.382,22.765s0.662,1.191,0.529,1.588
				c-0.132,0.397-0.397,2.779-0.397,2.779s-4.103-0.662-7.015-1.456c-2.912-0.794-7.015-2.515-7.015-2.515s-0.529-1.588-0.132-2.515
				c0.397-0.927,1.456-3.573,1.456-3.573s-0.397-15.618-0.397-18.265c0-2.647-2.118-14.162-2.118-16.544
				c0-2.382-2.515-24.485-2.118-27c0.397-2.515,0.662-6.353,0.662-6.353l-0.662-5.956L502.576,376.628z"/>
			<path style="fill:none;stroke:#263238;stroke-linecap:round;stroke-linejoin:round;stroke-miterlimit:10;" d="M488.749,396.381
				c0.1,7.283,0.252,20.508,0.062,22.6"/>
			<path style="fill:none;stroke:#263238;stroke-linecap:round;stroke-linejoin:round;stroke-miterlimit:10;" d="M488.679,391.584
				c0,0,0.014,0.893,0.036,2.357"/>
			<path style="fill:none;stroke:#263238;stroke-linecap:round;stroke-linejoin:round;stroke-miterlimit:10;" d="M489.076,421.893
				c0,0,0.794,5.294,1.059,11.779s-0.926,20.25-0.926,20.25s0.529,1.323,0.529,1.853c0,0.529-0.794,2.25-0.794,2.25"/>
		</g>
		<path style="fill:#92E3A9;stroke:#263238;stroke-linecap:round;stroke-linejoin:round;stroke-miterlimit:10;" d="M499.031,332.269
			c0,0,5.87,9.21,6.781,12.853c0.911,3.643-2.429,21.961-2.429,21.961s1.316,8.4,0.911,9.21c-0.405,0.81-1.215,1.417-1.215,1.417
			h-25.504c0,0-1.113-1.923-1.214-2.935c-0.101-1.012-0.304-2.125,0.202-3.846c0.506-1.72,1.721-21.455,2.935-25.099
			c1.215-3.643,6.477-10.323,6.477-10.323L499.031,332.269z"/>
		<path style="fill:#FFFFFF;stroke:#263238;stroke-linecap:round;stroke-linejoin:round;stroke-miterlimit:10;" d="M481.399,318.835
			c0.168-1.233,2.139-2.283,2.802-3.232c0.689-0.986,0.266-1.847,0.8-2.921c1.578-3.169,2.764-6.135,6.47-6.967
			c4.597-1.033,11.796,1.317,13.94,5.349c1.566,2.944,1.605,6.838,0.514,9.938c-0.55,1.563-1.42,3.042-2.671,4.147
			c-0.37,0.328-4.462,2.245-4.426,1.958c0,0.001-0.405,3.239-0.405,3.239l-11.436,2.935l-0.506-5.06c0,0-2.024,0-3.34-0.304
			c-1.316-0.304-1.72-0.81-1.417-1.923c0.304-1.113,1.215-5.06,1.214-5.061c-0.436-0.359-1.131-0.826-1.394-1.326
			C481.405,319.342,481.365,319.085,481.399,318.835z"/>
		<path style="fill:#263238;" d="M485.923,315.261c-0.203,0.62-0.096,1.212,0.24,1.322c0.336,0.11,0.773-0.303,0.977-0.923
			c0.204-0.62,0.096-1.212-0.24-1.322C486.564,314.228,486.126,314.641,485.923,315.261z"/>
		<path style="fill:none;stroke:#263238;stroke-linecap:round;stroke-linejoin:round;stroke-miterlimit:10;" d="M488.648,313.689
			c0,0-0.394-1.772-2.363-1.575"/>
		<path style="fill:none;stroke:#263238;stroke-linecap:round;stroke-linejoin:round;stroke-miterlimit:10;" d="M483.43,322.845
			c0,0,1.28,0.295,2.461-0.886"/>
		<path style="fill:#263238;stroke:#263238;stroke-linecap:round;stroke-linejoin:round;stroke-miterlimit:10;" d="M498.604,323.299
			c0.995-1.493,0.498-4.313-1.161-4.977c-1.659-0.664-3.65,1.825-4.147,1.659c-0.498-0.166,1.161-2.986,1.161-2.986
			s-1.991-1.161-2.488-2.654c-0.498-1.493,2.986-2.986,3.981-3.152c0.995-0.166-4.479-5.475-4.479-5.475
			c4.597-1.033,11.796,1.317,13.94,5.349c1.566,2.944,1.605,6.838,0.514,9.938c-0.55,1.563-1.42,3.042-2.671,4.147
			c-0.319,0.283-3.404,1.746-4.223,1.959c-0.129,0-0.204,0-0.204,0l-2.878-1.983C495.95,325.124,497.609,324.792,498.604,323.299z"
			/>
		<polygon style="fill:#263238;stroke:#263238;stroke-linecap:round;stroke-linejoin:round;stroke-miterlimit:10;" points="
			485.143,336.955 481.213,342.413 479.903,371.233 477.693,376.364 474.882,367.084 480.714,341.381 484.706,334.62 		"/>
		<polygon style="fill:#92E3A9;stroke:#263238;stroke-linecap:round;stroke-linejoin:round;stroke-miterlimit:10;" points="
			498.828,329.132 484.761,333.787 485.267,339.455 499.941,332.674 		"/>
		<polygon style="fill:#263238;stroke:#263238;stroke-linecap:round;stroke-linejoin:round;stroke-miterlimit:10;" points="
			486.481,328.221 489.214,328.019 486.987,331.358 		"/>
		<polygon style="fill:#DEDEDE;stroke:#263238;stroke-linecap:round;stroke-linejoin:round;stroke-miterlimit:10;" points="
			448.529,339.961 462.192,329.942 468.77,356.356 466.746,358.583 		"/>
		<path style="fill:#FFFFFF;stroke:#263238;stroke-linecap:round;stroke-linejoin:round;stroke-miterlimit:10;" d="M454.5,326.197
			l12.954,30.766l12.448,14.27l-7.59,6.275l-11.335-17.407c0,0-14.472-18.217-14.877-19.431
			C445.695,339.455,454.5,326.197,454.5,326.197z"/>
		<g>
			<path style="fill:#FFFFFF;stroke:#263238;stroke-linecap:round;stroke-linejoin:round;stroke-miterlimit:10;" d="
				M478.365,358.303l-7.465-2.82c0,0-2.157-3.152-2.488-3.816c-0.332-0.664-3.982-1.991-4.479-2.488
				c-0.498-0.498-2.157-2.323-2.323-1.493s-0.498,1.659,0.332,2.157c0.829,0.498,2.488,2.654,2.488,2.654s-3.981-0.332-4.313,0.664
				c-0.332,0.995,0.664,2.986,0.664,2.986s1.327,0.166,1.825,0.664c0.498,0.498,1.493,2.654,2.654,3.152
				c1.161,0.498,5.309,0.664,5.309,0.664l4.645,3.65L478.365,358.303z"/>
			<path style="fill:#92E3A9;stroke:#263238;stroke-linecap:round;stroke-linejoin:round;stroke-miterlimit:10;" d="
				M473.517,356.263l-2.183-0.819c0,0-2.183,5.322-1.979,5.39c0.205,0.068,2.252,0.682,2.252,0.682L473.517,356.263z"/>
			<path style="fill:#92E3A9;stroke:#263238;stroke-linecap:round;stroke-linejoin:round;stroke-miterlimit:10;" d="
				M502.319,344.777c0.273,0.942,0.385,1.801,0.355,2.369c-0.101,1.923-5.465,24.593-5.87,26.01
				c-0.405,1.417-3.745,2.227-4.757,1.923c-1.012-0.304-20.613-12.289-20.815-12.795c-0.202-0.506,1.31-6.166,2.323-6.47
				c1.012-0.304,13.635,4.995,13.635,4.995s0.573-14.233,1.441-16.714"/>
			
				<line style="fill:none;stroke:#263238;stroke-linecap:round;stroke-linejoin:round;stroke-miterlimit:10;" x1="487.797" y1="361.012" x2="492.351" y2="363.44"/>
			
				<line style="fill:none;stroke:#263238;stroke-linecap:round;stroke-linejoin:round;stroke-miterlimit:10;" x1="492.452" y1="361.922" x2="489.416" y2="361.214"/>
		</g>
	</g>
</g>
<g id="Character_2">
	<g>
		<polygon style="fill:#FFFFFF;stroke:#263238;stroke-linecap:round;stroke-linejoin:round;stroke-miterlimit:10;" points="
			289.489,143.296 293.715,162.16 306.839,158.738 307.996,162.564 288.848,174.239 284.696,164.828 		"/>
		<polygon style="fill:#FFFFFF;stroke:#263238;stroke-linecap:round;stroke-linejoin:round;stroke-miterlimit:10;" points="
			270.354,136.97 257.333,143.111 260.615,173.143 282.175,173.513 288.199,159.68 289.489,143.296 279.765,138.477 		"/>
		<path style="fill:#FFFFFF;stroke:#263238;stroke-linecap:round;stroke-linejoin:round;stroke-miterlimit:10;" d="M266.736,139.021
			l2.675,11.369l13.821,0.892l-0.892-10.923l-2.576-1.882C279.765,138.477,268.742,135.677,266.736,139.021z"/>
		<g>
			<path style="fill:#FFFFFF;stroke:#263238;stroke-linecap:round;stroke-linejoin:round;stroke-miterlimit:10;" d="
				M281.787,114.821c2.893,0.388,5.568,1.816,6.685,4.236c1.812,3.925,0.302,7.851,0.906,8.757c0.604,0.906,1.51,3.322,1.51,3.322
				l-2.416,1.51c0,0-2.548,4.741-3.454,5.345c-0.906,0.604-4.397-1.118-4.397-1.118l-2.416,4.529l-7.851-6.643l3.322-6.341
				c0,0-3.02-5.737-1.51-9.361C273.578,115.669,277.882,114.298,281.787,114.821z"/>
			<path style="fill:#263238;" d="M288.01,127.699c0,0.673-0.259,1.219-0.577,1.219c-0.319,0-0.577-0.546-0.577-1.219
				c0-0.673,0.258-1.219,0.577-1.219C287.751,126.48,288.01,127.026,288.01,127.699z"/>
			<path style="fill:#FFFFFF;stroke:#263238;stroke-linecap:round;stroke-linejoin:round;stroke-miterlimit:10;" d="
				M286.598,133.793c0,0-0.898-0.128-1.539-1.026"/>
			<path style="fill:#FFFFFF;stroke:#263238;stroke-linecap:round;stroke-linejoin:round;stroke-miterlimit:10;" d="M286.47,124.941
				c0,0,1.411-0.77,2.053,0.257"/>
		</g>
		<path style="fill:#263238;stroke:#263238;stroke-linecap:round;stroke-linejoin:round;stroke-miterlimit:10;" d="M260.615,173.143
			c0,0-6.09,6.355-7.197,18.534c-1.107,12.179-2.768,35.153-2.768,35.153l-5.813,36.537l7.197,0.277l11.625-35.706l7.75-27.956
			l9.134,28.233l6.036,35.767l6.92-0.83l-0.5-43.794l-1.109-7.115c-1.47-9.432-4.049-18.658-7.684-27.485l-0.341-0.829
			l-1.691-10.413L260.615,173.143z"/>
		<path style="fill:#263238;stroke:#263238;stroke-linecap:round;stroke-linejoin:round;stroke-miterlimit:10;" d="M289.219,119.236
			c0,0,0.736,2.965-3.693,6.01c-4.429,3.045-4.429,3.045-4.429,3.045s-0.554,20.759-1.107,21.867
			c-0.554,1.107-13.84-10.795-13.009-13.286c0.83-2.491,1.898-9.03,1.898-10.968c0-1.938,0.316-7.3,3.638-10.622
			c3.322-3.322,17.715-2.491,18.545,0.277C291.892,118.326,289.219,119.236,289.219,119.236z"/>
		<path style="fill:#FFFFFF;stroke:#263238;stroke-linecap:round;stroke-linejoin:round;stroke-miterlimit:10;" d="M257.333,143.111
			l-14.987,25.038l-3.758,22.697l4.02,0.309l7.489-21.622l8.746-10.693C258.843,158.84,259.311,147.136,257.333,143.111z"/>
		<g>
			<path style="fill:#FFFFFF;stroke:#263238;stroke-linecap:round;stroke-linejoin:round;stroke-miterlimit:10;" d="
				M246.406,196.175c0,0-1.643-2.191-1.826-2.464c-0.182-0.274-1.973-2.555-1.973-2.555s-3.504-1.37-4.02-0.309
				c-0.516,1.06-1.309,8.706-1.4,9.345c-0.091,0.639,0.639,1.095,0.639,1.095l0.639-3.103c0,0,0.274,3.195,0.274,4.107
				c0,0.913,0.913,0.73,0.913,0.73l0.274-4.746c0,0,0.913,3.833,1.095,4.746s1.095,0.456,1.095,0.183
				c0-0.274,0.182-5.385,0.182-5.385s0.822,3.103,1.004,3.833c0.182,0.73,1.006-0.291,1.006-0.291l-0.155-4.948
				c0,0,0.426,0.219,1.613,0.675C246.954,197.544,246.406,196.175,246.406,196.175z"/>
			
				<line style="fill:none;stroke:#263238;stroke-linecap:round;stroke-linejoin:round;stroke-miterlimit:10;" x1="244.154" y1="196.413" x2="243.212" y2="193.711"/>
		</g>
		<path style="fill:#FFFFFF;stroke:#263238;stroke-linecap:round;stroke-linejoin:round;stroke-miterlimit:10;" d="M306.839,158.738
			l1.561-4.528l2.695-2.29c0,0,0.135-2.156,0.943-2.291c0.808-0.135,1.078,0.27,0.943,1.482s-0.943,2.425-0.943,2.425
			s1.752-1.213,2.156-0.539c0.404,0.674,0.27,6.737-0.135,7.545c-0.404,0.808-6.063,2.021-6.063,2.021L306.839,158.738z"/>
		<path style="fill:#FFFFFF;stroke:#263238;stroke-linecap:round;stroke-linejoin:round;stroke-miterlimit:10;" d="M312.038,153.537
			l-1.482,1.482c0,0-0.539,5.524,0,5.524s3.503,0,3.503,0"/>
		<path style="fill:#FFFFFF;stroke:#263238;stroke-linecap:round;stroke-linejoin:round;stroke-miterlimit:10;" d="M244.838,263.366
			l-1.954,5.62c0,0-1.338,2.229-1.561,4.013c-0.223,1.783,6.688,0.892,7.802,0.892c1.115,0,2.229-0.223,2.898-0.892
			c0.669-0.669,0.011-9.356,0.011-9.356L244.838,263.366z"/>
		<path style="fill:#FFFFFF;stroke:#263238;stroke-linecap:round;stroke-linejoin:round;stroke-miterlimit:10;" d="M293.499,263.29
			l2.44,4.929c0,0,5.573,2.229,5.796,3.567c0.223,1.338,0,2.006-1.338,2.229c-1.337,0.223-15.605,0-15.605,0s0-3.344,0-4.459
			c0-1.115,1.786-5.436,1.786-5.436L293.499,263.29z"/>
	</g>
	<g>
		<g>
			<g>
				<polygon style="fill:#FFFFFF;stroke:#263238;stroke-linecap:round;stroke-linejoin:round;stroke-miterlimit:10;" points="
					321.817,401.572 318.81,404.579 198.746,310.383 201.753,307.376 				"/>
				<polygon style="fill:#FFFFFF;stroke:#263238;stroke-linecap:round;stroke-linejoin:round;stroke-miterlimit:10;" points="
					198.746,401.572 201.753,404.579 321.817,310.383 318.81,307.376 				"/>
			</g>
			
				<rect x="320.11" y="279.618" style="fill:#FFFFFF;stroke:#263238;stroke-linecap:round;stroke-linejoin:round;stroke-miterlimit:10;" width="4.253" height="187.125"/>
			
				<rect x="199.208" y="279.618" style="fill:#FFFFFF;stroke:#263238;stroke-linecap:round;stroke-linejoin:round;stroke-miterlimit:10;" width="4.253" height="187.125"/>
			
				<rect x="258.473" y="248.729" transform="matrix(6.123234e-17 -1 1 6.123234e-17 -47.5732 568.7717)" style="fill:#FFFFFF;stroke:#263238;stroke-linecap:round;stroke-linejoin:round;stroke-miterlimit:10;" width="4.253" height="118.886"/>
			
				<rect x="258.473" y="344.724" transform="matrix(6.123234e-17 -1 1 6.123234e-17 -143.5672 664.7657)" style="fill:#FFFFFF;stroke:#263238;stroke-linecap:round;stroke-linejoin:round;stroke-miterlimit:10;" width="4.253" height="118.886"/>
		</g>
		<g>
			<polygon style="fill:#FFFFFF;stroke:#263238;stroke-linecap:round;stroke-linejoin:round;stroke-miterlimit:10;" points="
				303.161,401.572 300.154,404.579 180.09,310.383 183.097,307.376 			"/>
			<polygon style="fill:#FFFFFF;stroke:#263238;stroke-linecap:round;stroke-linejoin:round;stroke-miterlimit:10;" points="
				180.09,401.572 183.097,404.579 303.161,310.383 300.154,307.376 			"/>
		</g>
		<g>
			
				<rect x="239.817" y="248.729" transform="matrix(6.123234e-17 -1 1 6.123234e-17 -66.2293 550.1155)" style="fill:#FFFFFF;stroke:#263238;stroke-linecap:round;stroke-linejoin:round;stroke-miterlimit:10;" width="4.253" height="118.886"/>
			
				<rect x="239.817" y="344.724" transform="matrix(6.123234e-17 -1 1 6.123234e-17 -162.2233 646.1096)" style="fill:#FFFFFF;stroke:#263238;stroke-linecap:round;stroke-linejoin:round;stroke-miterlimit:10;" width="4.253" height="118.886"/>
			
				<rect x="178.551" y="279.618" style="fill:#FFFFFF;stroke:#263238;stroke-linecap:round;stroke-linejoin:round;stroke-miterlimit:10;" width="4.253" height="187.125"/>
			
				<rect x="301.276" y="279.618" style="fill:#FFFFFF;stroke:#263238;stroke-linecap:round;stroke-linejoin:round;stroke-miterlimit:10;" width="4.253" height="187.125"/>
		</g>
		
			<rect x="171.243" y="274.309" style="fill:#263238;stroke:#263238;stroke-linecap:round;stroke-linejoin:round;stroke-miterlimit:10;" width="160.321" height="8.117"/>
	</g>
</g>
<g id="Gears_1_">
	<g>
		
			<line style="fill:none;stroke:#263238;stroke-linecap:round;stroke-linejoin:round;stroke-miterlimit:10;" x1="310.214" y1="220.685" x2="310.214" y2="8.882"/>
		
			<line style="fill:none;stroke:#263238;stroke-linecap:round;stroke-linejoin:round;stroke-miterlimit:10;" x1="435.026" y1="135.585" x2="435.026" y2="8.882"/>
		<g>
			<g>
				<g>
					<path style="fill:#263238;stroke:#263238;stroke-linecap:round;stroke-linejoin:round;stroke-miterlimit:10;" d="
						M395.935,322.447c-0.011-0.988,0.057-1.958,0.009-2.953c-0.521-10.945-3.244-21.264-7.717-30.552l25.777-22.642l-23.644-26.916
						h-6.18l-0.543,5.887l0.011,0.009l-17.938,15.757c-9.229-7.252-20.078-12.449-31.88-15.035l-1.589-33.364h-6.18l-28.08,33.753
						c-11.929,2.917-22.706,8.554-31.783,16.139l-26.891-19.427h-6.18l0.873,4.038l1.705,0.947l-17.378,24.055l26.252,18.965
						c-4.706,10.552-7.175,22.268-6.799,34.557l-32.595,9.09l8.594,30.822l-5.152,3.687h6.18l32.158-8.967
						c5.459,10.282,13.04,19.223,22.228,26.162l-13.627,32.12l26.345,11.177l0.456,2.815h6.18l13.415-31.624
						c6.03,1.152,12.26,1.7,18.663,1.395c5.137-0.245,10.123-1.012,14.942-2.179l13.61,25.13l-2.844,6.159h6.18l31.504-17.062
						l-16.475-30.417c8.672-7.25,15.8-16.247,20.724-26.503l28.208,5.041l0.371,1.171h6.18l6.302-35.268L395.935,322.447z
						 M318.532,358.37c-19.392,0.923-35.858-14.049-36.782-33.439c-0.923-19.39,14.047-35.858,33.438-36.781
						c19.391-0.923,35.859,14.048,36.782,33.438C352.894,340.978,337.923,357.447,318.532,358.37z"/>
				</g>
				<path style="fill:#92E3A9;stroke:#263238;stroke-linecap:round;stroke-linejoin:round;stroke-miterlimit:10;" d="
					M382.087,357.47l34.759,6.211l6.302-35.268l-33.393-5.967c-0.011-0.988,0.057-1.958,0.009-2.953
					c-0.521-10.945-3.244-21.264-7.717-30.552l25.777-22.642l-23.644-26.916l-24.65,21.653c-9.229-7.252-20.078-12.449-31.88-15.035
					l-1.589-33.364l-35.786,1.704l1.526,32.049c-11.929,2.917-22.706,8.554-31.783,16.139l-26.891-19.427l-20.98,29.041
					l26.252,18.965c-4.706,10.552-7.175,22.268-6.799,34.557l-32.595,9.091l9.622,34.509l32.158-8.967
					c5.459,10.282,13.04,19.223,22.229,26.162l-13.627,32.12l32.981,13.992l13.415-31.624c6.03,1.152,12.26,1.7,18.663,1.395
					c5.137-0.245,10.123-1.012,14.942-2.179l16.946,31.289l31.504-17.062l-16.475-30.417
					C370.035,376.724,377.163,367.727,382.087,357.47z M275.571,324.931c-0.923-19.39,14.046-35.858,33.438-36.781
					c19.391-0.923,35.859,14.048,36.782,33.438c0.923,19.391-14.048,35.859-33.439,36.783
					C292.961,359.294,276.494,344.322,275.571,324.931z"/>
			</g>
			<g>
				<path style="fill:#263238;stroke:#263238;stroke-linecap:round;stroke-linejoin:round;stroke-miterlimit:10;" d="
					M498.526,206.553c4.041-8.257,6.21-16.944,6.678-25.58l28.102-6.225l-6.502-29.345h-6.18l0.277,1.308l-20.972,4.646
					c-3.853-9.062-9.728-17.268-17.359-23.94l12.319-25.17l-26.996-13.213h-6.18l4.986,2.44l-10.64,21.738
					c-9.948-2.678-20.15-2.89-29.889-0.983l-11.916-25.152h-6.18l1.212,2.354l-22.194,10.515l11.633,24.553
					c-7.725,5.855-14.277,13.47-18.967,22.656l-27.637-6.493h-6.18l-0.027,2.241l5.482,0.843l-6.151,26.175l27.266,6.407
					c-0.143,9.765,1.815,19.404,5.766,28.218l-23.002,18.105l14.846,18.863l-2.437,4.755h6.18l22.646-17.825
					c3.967,3.284,8.326,6.206,13.156,8.57c3.875,1.897,7.85,3.348,11.865,4.438l-0.19,29.852l30.057,0.192l0.184-29.021
					c9.306-1.825,18.183-5.557,25.949-11.107l19.277,15.575l-2.415,3.042h6.18l18.889-23.38l-22.137-17.885
					C497.717,207.99,498.159,207.304,498.526,206.553z M465.353,190.317c-7.16,14.628-24.823,20.683-39.451,13.524
					c-14.629-7.16-20.682-24.823-13.522-39.451c7.16-14.628,24.821-20.683,39.45-13.523
					C466.458,158.026,472.513,175.689,465.353,190.317z"/>
				<path style="fill:#92E3A9;stroke:#263238;stroke-linecap:round;stroke-linejoin:round;stroke-miterlimit:10;" d="
					M471.352,231.368l23.042,18.617l18.889-23.38l-22.137-17.885c0.392-0.73,0.833-1.417,1.201-2.167
					c4.041-8.257,6.211-16.944,6.678-25.58l28.102-6.225l-6.502-29.345l-26.874,5.954c-3.853-9.062-9.728-17.268-17.359-23.94
					l12.319-25.17l-26.997-13.213l-11.834,24.178c-9.948-2.678-20.15-2.89-29.889-0.983l-11.916-25.152l-27.162,12.868
					l11.633,24.553c-7.725,5.855-14.276,13.47-18.967,22.656l-27.637-6.493l-6.876,29.259l27.266,6.407
					c-0.143,9.765,1.815,19.404,5.766,28.218l-23.002,18.105l18.589,23.618l22.646-17.825c3.967,3.284,8.326,6.205,13.156,8.57
					c3.875,1.897,7.85,3.348,11.865,4.438l-0.191,29.852l30.057,0.192l0.184-29.021C454.709,240.65,463.586,236.917,471.352,231.368
					z M406.2,164.389c7.16-14.628,24.821-20.683,39.45-13.523c14.628,7.16,20.683,24.822,13.523,39.45
					c-7.16,14.628-24.823,20.683-39.451,13.524C405.094,196.68,399.041,179.017,406.2,164.389z"/>
			</g>
		</g>
	</g>
</g>
<g id="Character_4">
	<g>
		<g>
			<path style="fill:#FFFFFF;stroke:#263238;stroke-linecap:round;stroke-linejoin:round;stroke-miterlimit:10;" d="
				M560.572,263.718c0,0-7.996,5.768-8.514,5.902c-0.518,0.134-4.144,0.81-4.527,1.591c-0.383,0.781-0.763,1.951-0.368,2.726
				c0.395,0.775,25.547-0.198,25.547-0.198s0.509-1.301,0.236-2.985c-0.272-1.684-0.298-4.926-0.298-4.926L560.572,263.718z"/>
			<path style="fill:#FFFFFF;stroke:#263238;stroke-linecap:round;stroke-linejoin:round;stroke-miterlimit:10;" d="M573,272.31
				l-25.929,0.201c-0.106,0.509-0.114,1.021,0.092,1.426c0.395,0.775,25.547-0.198,25.547-0.198S572.927,273.172,573,272.31z"/>
		</g>
		<g>
			<path style="fill:#FFFFFF;stroke:#263238;stroke-linecap:round;stroke-linejoin:round;stroke-miterlimit:10;" d="
				M623.589,262.191l-1.522,4.421l-5.797,5.103c0,0-0.378,1.43,0.273,1.684c0.65,0.254,11.801-0.092,11.801-0.092
				s1.809-0.922,2.452-1.575c0.643-0.653,6.157-8.737,6.02-9.644c-0.137-0.907-3.53-3.734-3.53-3.734L623.589,262.191z"/>
			<path style="fill:#FFFFFF;stroke:#263238;stroke-linecap:round;stroke-linejoin:round;stroke-miterlimit:10;" d="
				M630.795,271.732c0.643-0.653,6.157-8.737,6.02-9.644c-0.048-0.321-0.507-0.883-1.076-1.474
				c-1.965,3.354-5.783,9.74-6.637,10.223c-0.938,0.531-9.562,0.867-12.856,0.978c-0.071,0.326-0.252,1.37,0.296,1.584
				c0.65,0.254,11.801-0.092,11.801-0.092S630.152,272.385,630.795,271.732z"/>
		</g>
		<path style="fill:#A1A1A1;stroke:#263238;stroke-linecap:round;stroke-linejoin:round;stroke-miterlimit:10;" d="M581.464,198.452
			c0,0-1.012,3.25-1.008,3.769c0.004,0.519,0.147,2.204,0.147,2.204s-16.703,20.102-17.726,22.055
			c-1.022,1.953-1.411,35.416-1.411,35.416s-1.553,0.401-1.549,0.92c0.004,0.519-0.247,1.558-0.247,1.558s3.257,1.92,5.207,2.553
			c1.95,0.633,7.145,1.501,7.145,1.501s0.638-1.302,0.628-2.599c-0.01-1.297-0.417-3.628-0.42-4.017
			c-0.003-0.389,5.092-29.09,5.092-29.09l16.329-18.283c0,0,7.16,20.176,8.595,21.332c1.435,1.156,19.384,24.49,19.384,24.49
			s-1.291,0.788-0.639,1.172c0.651,0.384,1.965,2.579,1.965,2.579s5.181-0.818,7.246-2.131s3.085-3.526,3.085-3.526
			s-1.577-2.711-2.232-3.484c-0.654-0.773-1.572-2.063-1.572-2.063l-15.117-26.08c0,0-3.729-29.281-4.787-31.996
			c-1.059-2.715-4.723-6.967-4.723-6.967L581.464,198.452z"/>
		<polygon style="fill:#263238;stroke:#263238;stroke-linecap:round;stroke-linejoin:round;stroke-miterlimit:10;" points="
			580.706,201.052 606.554,189.568 604.854,187.766 581.326,197.415 		"/>
		<path style="fill:none;stroke:#263238;stroke-linecap:round;stroke-linejoin:round;stroke-miterlimit:10;" d="M586.402,199.71
			l0.664,2.07c0,0-1.291,0.788-1.026,1.435c0.264,0.646,1.962,2.189,1.962,2.189"/>
		<path style="fill:none;stroke:#263238;stroke-linecap:round;stroke-linejoin:round;stroke-miterlimit:10;" d="M588.469,198.787
			l1.056,2.326c0,0-1.289,1.048-0.633,1.95c0.656,0.903,1.57,1.803,1.57,1.803"/>
		
			<line style="fill:none;stroke:#263238;stroke-linecap:round;stroke-linejoin:round;stroke-miterlimit:10;" x1="589.059" y1="208.738" x2="588.149" y2="207.608"/>
		
			<line style="fill:none;stroke:#263238;stroke-linecap:round;stroke-linejoin:round;stroke-miterlimit:10;" x1="593.649" y1="214.439" x2="590.78" y2="210.875"/>
		
			<line style="fill:none;stroke:#263238;stroke-linecap:round;stroke-linejoin:round;stroke-miterlimit:10;" x1="622.743" y1="246.369" x2="624.921" y2="250.12"/>
		<path style="fill:none;stroke:#263238;stroke-linecap:round;stroke-linejoin:round;stroke-miterlimit:10;" d="M606.406,203.835
			l5.102,22.397l-0.375,1.818c0,0,1.558,0.247,1.561,0.636c0.003,0.389,0.003,0.389,0.003,0.389l8.591,14.79"/>
		
			<line style="fill:none;stroke:#263238;stroke-linecap:round;stroke-linejoin:round;stroke-miterlimit:10;" x1="569.515" y1="254.728" x2="568.72" y2="260.931"/>
		<path style="fill:none;stroke:#263238;stroke-linecap:round;stroke-linejoin:round;stroke-miterlimit:10;" d="M589.233,213.565
			l-16.066,18.67c0,0-2.596-0.239-2.202,0.406c0.394,0.645,1.179,1.547,1.179,1.547l-2.36,18.437"/>
		<path style="fill:#FFFFFF;stroke:#263238;stroke-linecap:round;stroke-linejoin:round;stroke-miterlimit:10;" d="M563.682,166.372
			c0,0,1.386,12.767,2.5,14.137c1.114,1.37,11.764,11.492,11.764,11.492s2.164,6.326,2.259,6.785
			c0.096,0.459-0.551,1.253,1.01,0.965c1.56-0.288,23.095-10.253,23.825-10.994c0.73-0.741,1.087-2.031,1.082-2.674
			c-0.005-0.643-0.656-1.558-1.027-2.014c-0.371-0.457-2.127-1.638-2.127-1.638s-10.152-16.928-12.374-19.025
			c-2.223-2.097-10.367-9.112-14.049-9.819c-3.683-0.707-8.553-0.485-8.553-0.485L563.682,166.372z"/>
		<path style="fill:#FFFFFF;stroke:#263238;stroke-linecap:round;stroke-linejoin:round;stroke-miterlimit:10;" d="M533.945,151.815
			c0,0-1.994-2.939-2.519-3.359s-6.507-3.778-6.507-3.778s-1.994,0.42-0.525,1.469c1.469,1.049,3.988,4.303,3.988,4.303
			s-2.099-0.63-2.834-0.63c-0.735,0-1.049,1.679-0.21,1.889c0.84,0.21,1.889,0.63,1.889,0.63s1.679,2.729,2.519,3.149
			c0.84,0.42,2.414,0.525,2.414,0.525l33.788,13.961l1.784-9.656L533.945,151.815z"/>
		<path style="fill:#FFFFFF;stroke:#263238;stroke-linecap:round;stroke-linejoin:round;stroke-miterlimit:10;" d="M558.947,148.482
			c0,0-1.857-2.528-4.79-4.825c-2.933-2.297-12.688,0.967-14.094,9.329c0,0-1.249,3.959,0.747,6.139
			c1.996,2.18,5.105,4.075,5.105,4.075s3.339,3.835,3.706,3.648c0.366-0.187,1.638-2.127,1.638-2.127s5.354,2.9,5.902,2.436
			c0.548-0.464,2.361-3.787,2.361-3.787l2.957,1.908l3.861-11.797l-4.696-0.975L558.947,148.482z"/>
		<polygon style="fill:#FFFFFF;stroke:#263238;stroke-linecap:round;stroke-linejoin:round;stroke-miterlimit:10;" points="
			565.597,152.568 561.385,166.574 565.268,169.393 569.091,152.633 		"/>
		<g>
			<polygon style="fill:#92E3A9;stroke:#263238;stroke-linecap:round;stroke-linejoin:round;stroke-miterlimit:10;" points="
				564.914,176.467 564.148,202.082 566.118,205.913 568.745,201.316 565.899,174.934 			"/>
			<path style="fill:#FFFFFF;stroke:#263238;stroke-linecap:round;stroke-linejoin:round;stroke-miterlimit:10;" d="M574.73,158.082
				c-1.269-0.358-2.505-0.513-3.577-0.41c-4.134,0.4-9.945,9.638-10.312,9.824c-0.366,0.187-8.122,7.601-8.122,7.601l-21.412-3.049
				l-5.971-7.31c0,0-2.121-0.903-2.769-1.449c-0.648-0.547-0.842-1.832-1.664-1.182c-0.822,0.65-1.276,1.481-0.995,2.122
				c0.281,0.641,1.392,1.644,1.392,1.644l0.558,0.823c0,0-6.541-0.37-7.039,0.057c-0.498,0.427-0.64,1.209-0.285,1.423
				c0.248,0.149,4.064,0.677,5.406,0.984c0.045,0.073-6.862,0.198-6.971,0.581c-0.142,0.498-0.213,1.067,0.071,1.209
				c0.285,0.142,6.189,1.138,6.189,1.138s-4.41,0.64-4.695,0.925c-0.284,0.285-0.142,0.783,0.142,0.996c0.285,0.214,5.478,0,5.478,0
				s-3.699,0.783-3.415,1.209c0.285,0.427,0.427,0.569,0.711,0.64c0.284,0.071,10.742,1.565,10.742,1.565l0.007-0.092l1.331,0.326
				c0,0,25.204,8.457,26.216,8.633c1.013,0.176,3.031-0.299,3.673-0.58c0.641-0.281,11.508-9.65,11.508-9.65l0.107-0.507"/>
			
				<line style="fill:none;stroke:#263238;stroke-linecap:round;stroke-linejoin:round;stroke-miterlimit:10;" x1="571.782" y1="174.74" x2="578.055" y2="170.461"/>
			
				<line style="fill:none;stroke:#263238;stroke-linecap:round;stroke-linejoin:round;stroke-miterlimit:10;" x1="572.574" y1="175.036" x2="578.715" y2="172.598"/>
		</g>
		<path style="fill:#263238;stroke:#263238;stroke-linecap:round;stroke-linejoin:round;stroke-miterlimit:10;" d="M546.124,154.441
			c0,0,0.587,2.928,1.397,2.945c0.81,0.017,3.4-1.452,3.4-1.452l2.057,0.788c0,0,1.082-0.593-0.094-1.719
			c-1.175-1.126-1.857-1.043-1.741-1.98c0.117-0.937,2.436-4.172,3.96-2.304c1.524,1.868,1.984,4.696,1.984,4.696l4.557-2.908
			c0,0-3.6-7.245-5.258-8.543c-1.658-1.298-5.989-1.81-9.061-0.513c-3.073,1.297-5.945,2.338-7.394,6.552
			c-1.449,4.214-1.561,8.035-0.624,8.152c0.937,0.117,2.475-5.262,2.874-5.772C542.581,151.872,546.124,154.441,546.124,154.441z"/>
		<path style="fill:#263238;" d="M548.262,160.642c0.493,0.386,0.736,0.899,0.543,1.145c-0.193,0.246-0.749,0.133-1.242-0.253
			c-0.493-0.386-0.736-0.899-0.543-1.145C547.213,160.142,547.769,160.255,548.262,160.642z"/>
		<path style="fill:none;stroke:#263238;stroke-linecap:round;stroke-linejoin:round;stroke-miterlimit:10;" d="M545.052,160.801
			c0,0-0.449-1.791,1.243-2.112"/>
		<path style="fill:none;stroke:#263238;stroke-linecap:round;stroke-linejoin:round;stroke-miterlimit:10;" d="M553.435,164.281
			c0,0,1.509-0.876,0.505-2.484"/>
		<polygon style="fill:#FFFFFF;stroke:#263238;stroke-linecap:round;stroke-linejoin:round;stroke-miterlimit:10;" points="
			551.741,174.063 558.502,186.969 563.128,184.214 555.695,172.428 		"/>
		<path style="fill:none;stroke:#263238;stroke-linecap:round;stroke-linejoin:round;stroke-miterlimit:10;" d="M574.985,184.239
			c0,0,8.976,4.269,19.157,4.16"/>
		<path style="fill:none;stroke:#263238;stroke-linecap:round;stroke-linejoin:round;stroke-miterlimit:10;" d="M581.553,189.493
			c0,0,8.21,2.518,12.37,0.985"/>
	</g>
	<g>
		<g>
			<g>
				<polygon style="fill:#FFFFFF;stroke:#263238;stroke-linecap:round;stroke-linejoin:round;stroke-miterlimit:10;" points="
					673.955,401.572 670.947,404.579 550.884,310.383 553.891,307.376 				"/>
				<polygon style="fill:#FFFFFF;stroke:#263238;stroke-linecap:round;stroke-linejoin:round;stroke-miterlimit:10;" points="
					550.884,401.572 553.891,404.579 673.955,310.383 670.947,307.376 				"/>
			</g>
			
				<rect x="672.248" y="279.618" style="fill:#FFFFFF;stroke:#263238;stroke-linecap:round;stroke-linejoin:round;stroke-miterlimit:10;" width="4.253" height="187.125"/>
			
				<rect x="551.346" y="279.618" style="fill:#FFFFFF;stroke:#263238;stroke-linecap:round;stroke-linejoin:round;stroke-miterlimit:10;" width="4.253" height="187.125"/>
			
				<rect x="610.611" y="248.729" transform="matrix(6.123234e-17 -1 1 6.123234e-17 304.5647 920.9095)" style="fill:#FFFFFF;stroke:#263238;stroke-linecap:round;stroke-linejoin:round;stroke-miterlimit:10;" width="4.253" height="118.886"/>
			
				<rect x="610.611" y="344.723" transform="matrix(6.123234e-17 -1 1 6.123234e-17 208.5706 1016.9036)" style="fill:#FFFFFF;stroke:#263238;stroke-linecap:round;stroke-linejoin:round;stroke-miterlimit:10;" width="4.253" height="118.886"/>
		</g>
		<g>
			<polygon style="fill:#FFFFFF;stroke:#263238;stroke-linecap:round;stroke-linejoin:round;stroke-miterlimit:10;" points="
				655.299,401.572 652.291,404.579 532.228,310.383 535.235,307.376 			"/>
			<polygon style="fill:#FFFFFF;stroke:#263238;stroke-linecap:round;stroke-linejoin:round;stroke-miterlimit:10;" points="
				532.228,401.572 535.235,404.579 655.299,310.383 652.291,307.376 			"/>
		</g>
		<g>
			
				<rect x="591.955" y="248.729" transform="matrix(6.123234e-17 -1 1 6.123234e-17 285.9086 902.2534)" style="fill:#FFFFFF;stroke:#263238;stroke-linecap:round;stroke-linejoin:round;stroke-miterlimit:10;" width="4.253" height="118.886"/>
			
				<rect x="591.955" y="344.723" transform="matrix(6.123234e-17 -1 1 6.123234e-17 189.9146 998.2475)" style="fill:#FFFFFF;stroke:#263238;stroke-linecap:round;stroke-linejoin:round;stroke-miterlimit:10;" width="4.253" height="118.886"/>
			
				<rect x="530.689" y="279.618" style="fill:#FFFFFF;stroke:#263238;stroke-linecap:round;stroke-linejoin:round;stroke-miterlimit:10;" width="4.253" height="187.125"/>
			
				<rect x="653.414" y="279.618" style="fill:#FFFFFF;stroke:#263238;stroke-linecap:round;stroke-linejoin:round;stroke-miterlimit:10;" width="4.253" height="187.125"/>
		</g>
		
			<rect x="523.381" y="274.309" style="fill:#263238;stroke:#263238;stroke-linecap:round;stroke-linejoin:round;stroke-miterlimit:10;" width="160.321" height="8.117"/>
	</g>
</g>
<g id="Character_1">
	<g>
		<polygon style="fill:#FFFFFF;stroke:#263238;stroke-linecap:round;stroke-linejoin:round;stroke-miterlimit:10;" points="
			167.607,346.955 188.065,355.548 209.596,351.661 210.006,355.343 188.679,363.527 165.357,353.297 		"/>
		<g>
			<g>
				<path style="fill:#263238;stroke:#263238;stroke-linecap:round;stroke-linejoin:round;stroke-miterlimit:10;" d="
					M185.418,325.079c0,0,4.227,1.828,3.884,4.113c-0.343,2.285-2.285,2.856-3.199,4.113c-0.914,1.257-0.8,0.571-0.8,0.571
					l-0.8-7.083C184.504,326.792,184.39,324.05,185.418,325.079z"/>
				<path style="fill:#263238;stroke:#263238;stroke-linecap:round;stroke-linejoin:round;stroke-miterlimit:10;" d="
					M168.167,319.823c0,0-2.056-2.628-6.284-2.399c-4.227,0.228-6.055,2.742-6.055,5.712c0,2.97,0.457,2.056-5.827,3.884
					c-6.284,1.828-6.284,4.227-6.398,5.484c-0.114,1.257-1.6,1.257-3.542,3.427c-1.942,2.171-2.061,8.86,5.023,11.373
					c7.083,2.513,12.949-1.547,14.206-6.803c1.257-5.255-0.035-6.627,1.565-8.112c1.6-1.485,0-3.77,0.686-6.512
					c0.686-2.742,4.456-3.884,5.712-4.113C168.51,321.537,168.395,320.852,168.167,319.823z"/>
				<path style="fill:#FFFFFF;stroke:#263238;stroke-linecap:round;stroke-linejoin:round;stroke-miterlimit:10;" d="
					M164.258,338.091c0,0-12.428,6.896-15.475,10.959c-3.047,4.063-4.499,20.064-4.499,20.064l15.006,9.604
					c0,0,10.146-10.369,10.992-13.416c0.846-3.047-1.087-20.115-1.087-20.115L164.258,338.091z"/>
				<path style="fill:#FFFFFF;stroke:#263238;stroke-linecap:round;stroke-linejoin:round;stroke-miterlimit:10;" d="
					M182.666,323.103c-6.872-5.806-17.008-1.758-17.807,2.112c-0.799,3.871-0.569,7.191-0.569,7.191l0.576,5.107l-0.607,0.578
					l-2.567,1.211l6.603,12.605l3.872-9.234c0,0,4.722,2.742,5.484,2.742c0.762,0,5.027-5.37,5.027-5.37s1.333,0.935,1.758,0.835
					c0.425-0.1,0.498-5.495,0.498-5.495s1.218-3.667,1.339-6.8C186.392,325.452,182.666,323.103,182.666,323.103z"/>
				<path style="fill:#263238;" d="M181.277,334.923c-0.134,0.651,0.02,1.233,0.346,1.3c0.325,0.067,0.698-0.406,0.832-1.056
					c0.134-0.651-0.02-1.232-0.346-1.3S181.412,334.273,181.277,334.923z"/>
				<path style="fill:none;stroke:#263238;stroke-linecap:round;stroke-linejoin:round;stroke-miterlimit:10;" d="M183.986,332.851
					c0,0-0.865-1.758-2.455-0.858"/>
				<path style="fill:none;stroke:#263238;stroke-linecap:round;stroke-linejoin:round;stroke-miterlimit:10;" d="M179.585,341.417
					c0,0-1.822,0.326-2.113-1.665"/>
			</g>
		</g>
		<path style="fill:#263238;stroke:#263238;stroke-linecap:round;stroke-linejoin:round;stroke-miterlimit:10;" d="M186.561,327.478
			c0,0,2.513-2.171-2.97-5.598c-5.484-3.427-12.339-3.999-16.223-1.371c-3.884,2.628-4.456,6.969-3.656,10.054
			s-0.114,5.141,1.485,6.169c1.6,1.028,6.055-1.143,6.626-3.199c0.571-2.056,0.685-3.085,2.399-2.856
			c1.714,0.229,2.301,2.859,2.301,2.859s3.983-3.316,6.382-3.773C185.304,329.306,186.561,327.478,186.561,327.478z"/>
		<path style="fill:#263238;stroke:#263238;stroke-linecap:round;stroke-linejoin:round;stroke-miterlimit:10;" d="M144.285,369.114
			c0,0-14.962,11.635-16.363,18.637c-1.401,7.003-7.166,39.744-7.166,39.744s-11.453,28.502-11.453,29.302
			c0,0.8,4.802,1.801,4.802,1.801s17.218-25.055,17.818-25.855c0.6-0.8,11.229-27.644,11.229-27.644l10.337,22.888l8.046,31.566
			l5.202-1l0.534-35.98l-10.229-37.728l2.248-6.128L144.285,369.114z"/>
		<path style="fill:#FFFFFF;stroke:#263238;stroke-linecap:round;stroke-linejoin:round;stroke-miterlimit:10;" d="M116.013,456.637
			c0,0,2.042,5.605,2.522,6.084c0.48,0.48,3.359,2.719,3.199,3.519c-0.16,0.8-7.678,0.48-9.437,0.32
			c-1.759-0.16-5.598-4.479-6.078-5.758c-0.48-1.28,2.399-5.438,3.839-6.398C111.497,453.444,116.013,456.637,116.013,456.637z"/>
		<path style="fill:#FFFFFF;stroke:#263238;stroke-linecap:round;stroke-linejoin:round;stroke-miterlimit:10;" d="M166.954,456.797
			l4.127,3.74c0,0,7.093,2.753,7.093,3.353c0,0.6-1.404,1.644-5.606,2.244c-4.202,0.6-10.434-0.179-12.034-0.779
			c-1.601-0.6,1-5.802,1-5.802L166.954,456.797z"/>
		<path style="fill:#FFFFFF;stroke:#263238;stroke-linecap:round;stroke-linejoin:round;stroke-miterlimit:10;" d="M155.124,355.02
			c0.51,2.224,0.996,1.78,2.911,3.015c3.83,2.471,27.404,10.175,27.404,10.175l24.246-10.07l4.818-0.988
			c0,0,1.112,0.247,1.606,0.371c0.494,0.124,1.235-0.124,1.73-0.494c0.494-0.371-2.1-1.483-2.1-1.483s3.089,0.124,4.077-0.124
			s1.112-1.236,0.618-1.236c-0.494,0-4.571-0.494-4.571-0.494s5.189-1.483,5.436-1.853c0.247-0.371-0.494-1.235-1.236-1.235
			s-5.436,0.741-5.436,0.741l1.483-1.112c0,0,2.965-0.865,3.83-1.606c0.865-0.741-0.124-1.236-0.124-1.236l-2.965,0.371l-4.571,1.73
			l0.494-1.236c0,0,1.236-0.988,1.359-2.224c0.124-1.236-1.236,0-1.236,0l-4.077,3.83l-1.112,3.954l-21.689,5.936l-22.015-13.226
			l-0.741-0.247"/>
		<path style="fill:#FFFFFF;stroke:#263238;stroke-linecap:round;stroke-linejoin:round;stroke-miterlimit:10;" d="M153.503,357.892
			l7.784,4.818l9.094-12.68c0,0-7.982-5.358-8.847-5.482c-0.865-0.124-3.83-0.741-5.56,1.977"/>
	</g>
</g>
</svg>
