<svg data-name="Layer 1" xmlns="http://www.w3.org/2000/svg" xmlns:xlink="http://www.w3.org/1999/xlink" viewBox="0 0 841.89 235.28"><defs><linearGradient id="a" x1="63.56" y1="222.68" x2="-34.33" y2="120.65" gradientUnits="userSpaceOnUse"><stop offset="0" stop-color="#0068af"/><stop offset="1" stop-color="#58c9ee"/></linearGradient><linearGradient id="g" x1="142.1" y1="222.68" x2="134.87" y2="145.19" xlink:href="#a"/><linearGradient id="h" x1="79.93" y1="240.2" x2="82.25" y2="126.55" xlink:href="#a"/><linearGradient id="b" x1="43.02" y1="248.5" x2="129.11" y2="61.15" gradientUnits="userSpaceOnUse"><stop offset="0" stop-color="#3473b9"/><stop offset="1" stop-color="#61be7a"/></linearGradient><linearGradient id="i" x1="-2.42" y1="174.82" x2="44.61" y2="72.49" xlink:href="#b"/><linearGradient id="j" x1="136.78" y1="217.01" x2="183.8" y2="114.69" xlink:href="#b"/><linearGradient id="c" x1="51.25" y1="114.16" x2="203.64" y2="22.21" gradientTransform="rotate(4.65 267.949 -17.54)" gradientUnits="userSpaceOnUse"><stop offset="0" stop-color="#00aa9f"/><stop offset="1" stop-color="#f8d82f"/></linearGradient><linearGradient id="k" x1="-46.16" y1="115.9" x2="172.87" y2="-29.43" xlink:href="#c"/><linearGradient id="l" x1="216.05" y1="178.87" x2="176.45" y2="35.26" xlink:href="#c"/><linearGradient id="m" x1="215.99" y1="125.08" x2="192.57" y2="-3.03" xlink:href="#c"/><linearGradient id="n" x1="161.73" y1="63.67" x2="167.15" y2="12.02" xlink:href="#c"/><linearGradient id="d" x1="-12.79" y1="1137.13" x2="-12.79" y2="301.85" gradientTransform="translate(177.64 -214.44)" gradientUnits="userSpaceOnUse"><stop offset="0" stop-color="#fff"/><stop offset="1"/></linearGradient><linearGradient id="f" x1="4.75" y1="-901.58" x2="4.75" y2="498.37" gradientTransform="translate(97.89 -149.21)" xlink:href="#d"/><linearGradient id="e" x1="257.63" y1="90.09" x2="257.63" y2="193.58" gradientUnits="userSpaceOnUse"><stop offset="0" stop-color="#b0ca35"/><stop offset="1" stop-color="#85a13d"/></linearGradient><linearGradient id="q" x1="348.56" y1="90.09" x2="348.56" y2="193.58" xlink:href="#e"/><linearGradient id="r" x1="439.1" y1="90.09" x2="439.1" y2="193.58" xlink:href="#e"/><mask id="o" x="164.8" y="22.43" width=".12" height=".22" maskUnits="userSpaceOnUse"><path style="fill:url(#d)" d="M164.8 22.43h.12v.22h-.12z"/></mask><mask id="p" x="0" y="22.43" width="205.27" height="134.99" maskUnits="userSpaceOnUse"><path style="fill:url(#f)" d="M0 22.43h205.27v134.99H0z"/></mask></defs><path d="M28.8 172.28c-1.04-1.93-2.18-3.36-3.65-4.21-9.33-6.88-17.06-12.64-24.18-21.35 3.57 24.06 16.19 46 35.19 61.18-5.38-12.53-6.17-31.44-6.17-31.44-.04-1.2-.48-2.88-1.19-4.18Z" style="fill:url(#a)"/><path d="M135.92 200.09c-1.93 1.04-3.36 2.18-4.21 3.65-6.88 9.33-12.64 17.06-21.35 24.18 24.06-3.57 46-16.19 61.18-35.18-12.53 5.38-31.44 6.16-31.44 6.16-1.2.04-2.88.48-4.18 1.2Z" style="fill:url(#g)"/><path d="M120.36 197.46q-7.71-.91-15.7-2.15c2.07 4.23 2.24 8.67.3 12.43-4.2 8.15-14.89 15.06-31.06 10.73-16.17-4.33-23.04-15.95-22.59-25.1.2-4.22 2.57-7.98 6.48-10.61q-7.55-2.92-14.67-5.99c-3.05-1.42-6.02-1.28-6.15 2.92 1.33 14.85 2.11 20 3.29 24.82 1.59 6.47 2.9 9.23 8.49 11.92 7.82 3.76 15 6.64 22.8 8.73 7.79 2.08 15.46 3.18 24.11 3.83 6.19.46 8.7-1.27 13.31-6.08 3.43-3.58 6.69-7.65 15.26-19.85 1.99-3.69-.52-5.3-3.87-5.6Z" style="fill:url(#h)"/><path d="M170.08 132.02c-3.5-1.45-7.38-.67-10.75 2.11-3.11 2.45-5.08 4.66-7.62 3.83-1.96-.62-2.57-3.65-1.81-7.06q2.54-13.11 4.34-25.44c.48-3.73-2.04-8-5.43-9.42q-11.57-4.62-24.19-8.98c-3.33-1.06-5.65-3.09-5.2-5.1.56-2.62 3.45-3.21 7.13-4.68 4.09-1.52 6.71-4.5 7.2-8.25 1.53-15.61-31.73-24.45-38.03-10.22-1.52 3.5-.74 7.38 2.04 10.75 2.45 3.11 4.66 5.07 3.83 7.62-.62 1.96-3.65 2.57-7.06 1.82q-13.11-2.54-25.44-4.33c-3.68-.52-8 2.06-9.42 5.43q-4.61 11.58-8.98 24.19c-1.06 3.33-3.09 5.65-5.1 5.2-2.62-.56-3.21-3.45-4.65-7.18-1.55-4.03-4.53-6.65-8.28-7.15-15.54-1.69-24.49 31.83-10.21 38.12 3.49 1.45 7.38.66 10.74-2.05 3.11-2.51 5.07-4.72 7.62-3.89 1.97.62 2.57 3.64 1.82 7.05q-2.53 13.11-4.32 25.44c-.48 3.74 2.08 8.04 5.44 9.41q11.58 4.61 24.2 8.97c3.33 1.05 5.65 3.09 5.2 5.1-.56 2.62-3.45 3.21-7.13 4.68-4.09 1.53-6.71 4.5-7.13 8.29-1.66 15.47 31.56 24.44 38.05 10.16 1.45-3.5.66-7.38-2.11-10.74-2.45-3.11-4.66-5.07-3.83-7.62.62-1.97 3.64-2.57 7.05-1.82q13.11 2.53 25.44 4.32c3.73.48 8-2.05 9.41-5.44q4.61-11.58 8.96-24.2c1.05-3.33 3.09-5.65 5.1-5.2 2.62.55 3.21 3.45 4.69 7.13 1.53 4.09 4.5 6.7 8.25 7.2 15.57 1.51 24.43-31.56 10.19-38.04Z" style="fill:url(#b)"/><path d="M49.38 73.23c-14.85 1.33-20 2.11-24.82 3.29-6.47 1.59-9.23 2.9-11.92 8.49-3.76 7.82-6.64 15.01-8.73 22.8C1.83 115.6.73 123.27.08 131.92c-.46 6.19 1.27 8.7 6.08 13.31 3.58 3.43 7.65 6.69 19.85 15.26 3.69 1.99 5.31-.52 5.6-3.87q.91-7.71 2.15-15.7c-4.23 2.07-8.67 2.24-12.43.3-8.15-4.19-14.77-15.94-10.44-32.12 4.33-16.17 15.66-21.98 24.82-21.54 4.22.2 7.98 2.57 10.61 6.48q2.92-7.55 5.99-14.67c1.42-3.05 1.27-6.03-2.92-6.15Z" style="fill:url(#i)"/><path d="M186.38 120.02c-3.59-3.43-7.65-6.69-19.85-15.26-3.69-1.99-5.31.52-5.6 3.87q-.9 7.71-2.15 15.7c4.23-2.07 8.67-2.24 12.43-.3 8.15 4.2 15.06 14.89 10.73 31.06-4.33 16.18-15.95 23.04-25.1 22.6-4.22-.21-7.98-2.57-10.61-6.48q-2.92 7.54-5.99 14.67c-1.42 3.05-1.27 6.02 2.92 6.15 14.85-1.33 20-2.11 24.82-3.29 6.48-1.59 9.23-2.9 11.92-8.49 3.76-7.82 6.64-15.01 8.73-22.8 2.08-7.79 3.19-15.46 3.83-24.11.46-6.19-1.27-8.7-6.08-13.31Z" style="fill:url(#j)"/><path d="M153.03 50.42c-2.16-6.3-3.72-8.93-9.53-11.11-8.13-3.04-15.54-5.26-23.49-6.64-7.95-1.37-15.68-1.78-24.36-1.64-6.21.1-8.55 2.05-12.71 7.26-3.1 3.88-5.97 8.22-13.41 21.14-1.65 3.86.99 5.24 4.35 5.23q7.76.21 15.83.73c-2.44-4.03-3.01-8.43-1.42-12.35 3.44-8.49 16.92-13.67 30.16-11.38 13.24 2.29 24.19 11.7 24.58 20.86.18 4.23-1.84 8.18-5.49 11.15q7.78 2.23 15.15 4.64c3.16 1.14 6.11.72 5.86-3.46-2.66-14.67-3.91-19.73-5.52-24.42Z" style="fill:url(#c)"/><path d="M20.81 69.2c12.08-6.33 30.87-8.57 30.87-8.57 1.2-.13 2.83-.7 4.08-1.51 1.84-1.18 3.19-2.43 3.92-3.96 6.14-9.84 11.29-17.98 19.43-25.75-23.71 5.41-44.62 19.68-58.3 39.79Z" style="fill:url(#k)"/><path d="M172.8 51.65c5.38 12.53 6.17 31.44 6.17 31.44.04 1.2.48 2.88 1.19 4.18 1.04 1.93 2.18 3.36 3.65 4.21 9.33 6.88 17.06 12.64 24.18 21.35-3.57-24.06-16.2-46-35.19-61.18Z" style="fill:url(#l)"/><path style="fill:url(#m)" d="m197.26 6.21-4.05 12.39-12.38 4.05 12.38 4.05 4.05 12.38 4.05-12.38 12.39-4.05-12.39-4.05-4.05-12.39z"/><path style="fill:url(#n)" d="m164.84 22.43-2.85 8.72-8.72 2.85 8.72 2.86 2.85 8.72 2.85-8.72 8.73-2.86-8.73-2.85-2.85-8.72z"/><g style="mask:url(#o)"><path style="fill:#27306c" d="m164.8 22.58.11.07-.07-.22-.04.15z"/></g><g style="mask:url(#p)"><path d="M2.97 149.06c-.67-.76-1.33-1.54-1.99-2.35.54 3.62 1.28 7.2 2.22 10.7a92.53 92.53 0 0 1-.26-6.68c0-.56.02-1.12.03-1.68Z" style="fill:#f6f4bb"/></g><path d="M225.62 175.37V96.48c0-2.56.9-4.74 2.69-6.53s3.97-2.69 6.53-2.69h54.81v15.11h-46.11v18.95h34.32v5.89c0 2.56-.9 4.74-2.69 6.53s-3.97 2.69-6.53 2.69h-25.1v22.54h46.11v16.39h-64.04Z" style="fill:url(#e)"/><path d="M357.4 175.37h-17.67v-43.54c0-4.1-1.24-7.08-3.71-8.97-2.48-1.88-5.25-2.82-8.32-2.82s-5.81.94-8.2 2.82c-2.39 1.88-3.59 4.87-3.59 8.97v43.54h-17.93v-39.96c0-11.61 3.03-19.38 9.09-23.31 6.06-3.93 12.76-6.06 20.11-6.4 3.93 0 7.77.43 11.53 1.28 3.75.86 7.17 2.56 10.25 5.12 2.56-2.22 5.59-3.8 9.09-4.74 3.5-.94 7.13-1.49 10.89-1.66 7.51 0 14.43 1.96 20.75 5.89 6.32 3.93 9.48 11.87 9.48 23.82v39.96h-8.97c-2.56 0-4.65-.81-6.28-2.43-1.62-1.62-2.43-3.71-2.43-6.28v-34.84c0-4.1-1.24-7.08-3.71-8.97-2.48-1.88-5.25-2.82-8.32-2.82s-5.85.94-8.32 2.82c-2.48 1.88-3.71 4.87-3.71 8.97v43.54Z" style="fill:url(#q)"/><path d="M417.71 169.22c-3.59-3.07-6.15-7.21-7.68-12.42-1.54-5.21-2.31-10.63-2.31-16.27 0-4.61.64-9.22 1.92-13.83s3.29-8.45 6.02-11.53c4.44-5.12 10.16-8.15 17.16-9.09 7-.94 13.32-.38 18.95 1.66 6.49 2.56 11.27 7 14.34 13.32 2.9 5.64 4.35 12.21 4.35 19.72 0 5.47-.6 10.16-1.79 14.09-1.2 3.93-2.73 7.26-4.61 9.99-4.1 5.64-9.31 9.14-15.62 10.5-5.64 1.54-11.31 1.66-17.03.38-5.72-1.28-10.29-3.46-13.7-6.53ZM430 124.14c-3.59 3.93-5.21 9.78-4.87 17.55.34 7.77 1.79 13.19 4.35 16.27 1.02 1.37 2.82 2.52 5.38 3.46s5.16 1.02 7.81.26c2.65-.77 4.99-2.69 7.04-5.76s3.16-8.02 3.33-14.86c0-6.15-.98-10.76-2.95-13.83-1.96-3.07-4.23-5.04-6.79-5.89-2.56-.85-5.12-.9-7.68-.13-2.56.77-4.44 1.75-5.64 2.95Z" style="fill:url(#r)"/><path d="M514.36 176.25c-9.4.51-17.3-2.46-23.69-8.92-6.17-6.24-9.51-14.03-10.03-23.36-.48-9.18 2.07-17.26 7.66-24.24 5.8-7.31 13.29-11.22 22.48-11.74 4.88-.26 9.66.53 14.32 2.37 5.77 2.24 8.78 5.43 9.03 9.58.15 2.39-.46 4.68-1.82 6.89-1.65 2.61-3.88 3.99-6.66 4.13-1.51.07-3.67-.34-6.5-1.24s-4.99-1.31-6.5-1.24c-3.38.15-5.97 1.58-7.77 4.3-1.8 2.72-2.59 6.06-2.37 10.03.22 3.71 1.41 6.84 3.55 9.39 2.15 2.55 4.8 3.72 7.96 3.5 1.43-.07 3.44-.73 6.03-1.98 2.59-1.25 4.56-1.91 5.92-1.98 2.65-.15 4.98.7 7 2.54 2.02 1.84 3.1 4.11 3.25 6.83.26 4.37-2.48 8.06-8.21 11.07-4.52 2.46-9.07 3.82-13.66 4.08Zm60.8-66.49c3.38-1.1 7.55-1.1 12.51 0 5.95 1.36 10.71 4.11 14.29 8.27 3.58 4.15 5.37 9.11 5.37 14.87 0 2.13-.27 4.32-.83 6.56l-7 30.35c-.66 2.87-1.97 5.14-3.94 6.83-1.96 1.69-4.22 2.54-6.75 2.54-.85 0-1.71-.07-2.59-.22-2.65-.63-4.7-1.93-6.17-3.91-1.47-1.98-2.2-4.3-2.2-6.94 0-1.03.11-2.11.33-3.25l6.33-27.54c.22-.99.33-1.89.33-2.7 0-2.28-.77-4.08-2.32-5.43-1.54-1.34-3.43-2.01-5.67-2.01-3.78 0-6.19 2.22-7.22 6.66l-6.45 27.6c-.63 2.79-1.91 5.05-3.86 6.78s-4.24 2.59-6.89 2.59c-.81 0-1.67-.11-2.59-.33-2.54-.59-4.56-1.86-6.06-3.83-1.51-1.96-2.26-4.25-2.26-6.86 0-1.06.11-2.17.33-3.3l15.64-67.71c.7-2.83 2.02-5.09 3.97-6.8 1.95-1.71 4.2-2.56 6.78-2.56.85 0 1.71.09 2.59.27 2.64.59 4.7 1.87 6.17 3.86 1.47 1.98 2.2 4.3 2.2 6.94 0 1.06-.13 2.17-.38 3.3l-3.69 15.98Zm72.12 66.82c-9.4.44-17.3-2.57-23.69-9.03-6.17-6.24-9.51-14.03-10.03-23.36-.48-9.18 2.07-17.26 7.66-24.24 5.8-7.31 13.29-11.22 22.48-11.73 9.22-.48 17.08 2.64 23.58 9.36 6.24 6.32 9.62 14.07 10.14 23.25.44 9.4-2.04 17.48-7.44 24.24-5.73 7.12-13.3 10.96-22.7 11.51Zm-2.48-47.87c-3.08.19-5.47 1.65-7.16 4.38-1.69 2.74-2.43 6.07-2.21 10 .22 3.74 1.31 6.88 3.28 9.39 1.96 2.51 4.45 3.7 7.46 3.55 3.08-.15 5.47-1.58 7.16-4.3 1.69-2.72 2.43-5.99 2.2-9.81-.26-3.82-1.34-7.01-3.25-9.58s-4.41-3.78-7.49-3.64Zm48.41-20.27c-3.23.22-6.09-.83-8.57-3.17-2.48-2.33-3.85-5.11-4.1-8.35-.15-3.08.93-5.87 3.22-8.34 2.3-2.48 5.02-3.79 8.18-3.94 3.16-.22 6 .77 8.54 2.97 2.53 2.2 3.88 4.89 4.02 8.04.15 3.3-.87 6.22-3.06 8.76-2.18 2.53-4.93 3.88-8.24 4.02Zm3.47 67.32c-3.23.26-5.91-.69-8.04-2.84-2.13-2.15-3.29-4.91-3.47-8.29l-2.26-43.35c-.22-3.38.63-6.24 2.56-8.57 1.93-2.33 4.51-3.61 7.74-3.83 3.23-.15 5.92.86 8.07 3 2.15 2.15 3.3 4.91 3.44 8.29l2.37 43.3c.15 3.38-.74 6.24-2.67 8.57s-4.51 3.57-7.74 3.72Zm51.45.49c-9.4.51-17.3-2.46-23.69-8.92-6.17-6.24-9.51-14.03-10.03-23.36-.48-9.18 2.07-17.26 7.66-24.24 5.8-7.31 13.29-11.22 22.48-11.74 4.88-.26 9.66.53 14.32 2.37 5.77 2.24 8.78 5.43 9.03 9.58.15 2.39-.46 4.68-1.82 6.89-1.65 2.61-3.88 3.99-6.66 4.13-1.51.07-3.67-.34-6.5-1.24-2.83-.9-4.99-1.31-6.5-1.24-3.38.15-5.97 1.58-7.77 4.3-1.8 2.72-2.59 6.06-2.37 10.03.22 3.71 1.41 6.84 3.55 9.39 2.15 2.55 4.8 3.72 7.96 3.5 1.43-.07 3.44-.73 6.03-1.98 2.59-1.25 4.56-1.91 5.92-1.98 2.65-.15 4.98.7 7 2.54s3.1 4.11 3.25 6.83c.26 4.37-2.48 8.06-8.21 11.07-4.52 2.46-9.07 3.82-13.66 4.08Zm82.13-33.33-29.25 10.19c1.98 1.95 4.52 2.92 7.6 2.92 1.73 0 3.53-.33 5.4-.99 2.57-.92 5.35-3.03 8.34-6.34 2.99-3.3 5.28-5.27 6.86-5.89.92-.29 1.84-.44 2.76-.44 2.61 0 4.91.94 6.91 2.84 2 1.89 3 4.11 3 6.64 0 4.15-2.55 8.56-7.66 13.22-4.59 4.3-9.64 7.38-15.15 9.25-3.89 1.36-7.81 2.04-11.74 2.04-6.98 0-13.23-2.11-18.76-6.33-5.53-4.22-9.54-9.93-12.04-17.14a35.646 35.646 0 0 1-2.04-11.95c0-6.94 1.76-13.15 5.29-18.62 3.86-5.88 9.09-9.93 15.7-12.17 3.3-1.14 6.65-1.71 10.03-1.71 6.94 0 13.39 2.22 19.34 6.67 5.62 4.11 9.44 9.18 11.46 15.2.55 1.51.83 2.94.83 4.3 0 3.97-2.3 6.74-6.89 8.32Zm-28.43-14.76c-4.37 1.5-6.59 4.66-6.66 9.47l17.74-6.06c-2.06-2.65-4.59-3.97-7.6-3.97-1.1 0-2.26.18-3.47.55Z" style="fill:#ffd302"/></svg>
