<svg data-name="Layer 1" xmlns="http://www.w3.org/2000/svg" xmlns:xlink="http://www.w3.org/1999/xlink" viewBox="0 0 512 533.92"><defs><linearGradient id="a" x1="156.55" y1="508.3" x2="-68.37" y2="273.88" gradientUnits="userSpaceOnUse"><stop offset="0" stop-color="#0068af"/><stop offset="1" stop-color="#58c9ee"/></linearGradient><linearGradient id="f" x1="337" y1="508.31" x2="320.39" y2="330.28" xlink:href="#a"/><linearGradient id="g" x1="194.15" y1="548.55" x2="199.49" y2="287.44" xlink:href="#a"/><linearGradient id="b" x1="109.35" y1="567.63" x2="307.16" y2="137.19" gradientUnits="userSpaceOnUse"><stop offset="0" stop-color="#3473b9"/><stop offset="1" stop-color="#61be7a"/></linearGradient><linearGradient id="h" x1="4.96" y1="398.33" x2="113" y2="163.24" xlink:href="#b"/><linearGradient id="i" x1="324.77" y1="495.27" x2="432.81" y2="260.18" xlink:href="#b"/><linearGradient id="c" x1="116.9" y1="269" x2="467.03" y2="57.74" gradientTransform="rotate(4.65 743.732 101.297)" gradientUnits="userSpaceOnUse"><stop offset="0" stop-color="#00aa9f"/><stop offset="1" stop-color="#f8d82f"/></linearGradient><linearGradient id="j" x1="-95.54" y1="262.97" x2="407.69" y2="-70.93" xlink:href="#c"/><linearGradient id="k" x1="506.9" y1="407.66" x2="415.9" y2="77.7" xlink:href="#c"/><linearGradient id="l" x1="506.76" y1="284.07" x2="452.95" y2="-10.27" xlink:href="#c"/><linearGradient id="m" x1="382.09" y1="142.98" x2="394.55" y2="24.29" xlink:href="#c"/><linearGradient id="d" x1="211.63" y1="2331.06" x2="211.63" y2="411.95" gradientTransform="translate(177.64 -214.44)" gradientUnits="userSpaceOnUse"><stop offset="0" stop-color="#fff"/><stop offset="1"/></linearGradient><linearGradient id="e" x1="148.44" y1="-2268.36" x2="148.44" y2="948.09" gradientTransform="translate(97.89 -149.21)" xlink:href="#d"/><mask id="n" x="389.14" y="48.22" width=".27" height=".5" maskUnits="userSpaceOnUse"><path style="fill:url(#d)" d="M389.14 48.22h.27v.5h-.27z"/></mask><mask id="o" x="10.52" y="48.22" width="471.62" height="310.15" maskUnits="userSpaceOnUse"><path style="fill:url(#e)" d="M10.52 48.22h471.62v310.15H10.52z"/></mask></defs><path d="M76.69 392.51c-2.39-4.43-5.01-7.73-8.38-9.68-21.45-15.8-39.2-29.04-55.55-49.06 8.2 55.27 37.21 105.69 80.84 140.57-12.36-28.79-14.17-72.23-14.17-72.23-.09-2.77-1.1-6.61-2.74-9.61Z" style="fill:url(#a)"/><path d="M322.8 456.4c-4.43 2.38-7.73 5-9.68 8.38-15.8 21.45-29.04 39.2-49.06 55.55 55.27-8.2 105.69-37.21 140.57-80.84-28.79 12.36-72.23 14.16-72.23 14.16-2.76.09-6.61 1.1-9.6 2.75Z" style="fill:url(#f)"/><path d="M287.05 450.36q-17.71-2.08-36.07-4.94c4.76 9.72 5.15 19.91.7 28.55-9.64 18.72-34.21 34.6-71.37 24.64-37.16-9.96-52.93-36.64-51.91-57.68.47-9.7 5.9-18.33 14.88-24.37q-17.34-6.71-33.71-13.76c-7-3.26-13.84-2.93-14.12 6.7 3.05 34.12 4.85 45.95 7.57 57.03 3.65 14.87 6.66 21.2 19.51 27.39 17.96 8.65 34.47 15.26 52.37 20.07 17.9 4.79 35.51 7.32 55.39 8.81 14.22 1.07 19.99-2.91 30.59-13.97 7.89-8.23 15.36-17.58 35.06-45.6 4.57-8.48-1.19-12.19-8.88-12.87Z" style="fill:url(#g)"/><path d="M401.29 300.01c-8.03-3.33-16.95-1.54-24.69 4.84-7.15 5.63-11.66 10.7-17.51 8.79-4.51-1.43-5.9-8.38-4.17-16.21q5.83-30.11 9.97-58.45c1.1-8.57-4.7-18.38-12.48-21.64q-26.59-10.61-55.58-20.64c-7.65-2.43-12.98-7.11-11.95-11.73 1.28-6.02 7.92-7.38 16.38-10.75 9.4-3.5 15.42-10.33 16.55-18.95 3.51-35.86-72.91-56.18-87.37-23.49-3.5 8.03-1.71 16.96 4.68 24.69 5.63 7.15 10.7 11.66 8.8 17.51-1.43 4.51-8.38 5.9-16.21 4.17q-30.12-5.83-58.45-9.96c-8.46-1.19-18.39 4.72-21.63 12.48q-10.6 26.6-20.62 55.59c-2.42 7.65-7.1 12.97-11.72 11.95-6.02-1.28-7.38-7.92-10.69-16.5-3.57-9.27-10.4-15.28-19.02-16.42-35.7-3.88-56.26 73.13-23.47 87.58 8.03 3.32 16.95 1.53 24.68-4.71 7.15-5.78 11.65-10.85 17.5-8.95 4.52 1.42 5.91 8.37 4.18 16.21q-5.81 30.12-9.93 58.45c-1.1 8.58 4.77 18.48 12.49 21.62q26.6 10.59 55.59 20.6c7.65 2.42 12.98 7.1 11.95 11.72-1.28 6.02-7.92 7.39-16.37 10.76-9.39 3.51-15.41 10.34-16.39 19.05-3.82 35.55 72.52 56.16 87.41 23.35 3.32-8.03 1.53-16.95-4.86-24.68-5.64-7.15-10.71-11.65-8.81-17.5 1.42-4.52 8.37-5.91 16.21-4.18q30.12 5.8 58.45 9.92c8.57 1.09 18.38-4.71 21.63-12.49q10.58-26.6 20.59-55.6c2.42-7.65 7.09-12.98 11.72-11.96 6.02 1.27 7.38 7.92 10.77 16.37 3.51 9.39 10.34 15.4 18.96 16.53 35.78 3.47 56.14-72.51 23.42-87.39Z" style="fill:url(#b)"/><path d="M123.97 164.93c-34.12 3.05-45.95 4.85-57.03 7.57-14.87 3.64-21.2 6.66-27.39 19.5-8.65 17.96-15.26 34.48-20.07 52.37-4.79 17.91-7.32 35.51-8.81 55.39-1.06 14.22 2.91 19.99 13.97 30.59 8.24 7.89 17.58 15.36 45.6 35.07 8.48 4.57 12.19-1.19 12.87-8.88q2.08-17.71 4.94-36.07c-9.72 4.76-19.91 5.14-28.55.7-18.72-9.64-33.94-36.63-23.99-73.79 9.96-37.16 35.99-50.5 57.02-49.49 9.7.47 18.33 5.9 24.38 14.88q6.7-17.34 13.76-33.71c3.26-7 2.93-13.84-6.7-14.12Z" style="fill:url(#h)"/><path d="M438.74 272.44c-8.24-7.89-17.58-15.36-45.61-35.07-8.47-4.57-12.19 1.19-12.87 8.88q-2.08 17.71-4.94 36.07c9.73-4.76 19.91-5.15 28.55-.7 18.73 9.64 34.6 34.21 24.64 71.37-9.96 37.16-36.64 52.93-57.67 51.92-9.7-.47-18.33-5.9-24.37-14.88q-6.71 17.33-13.76 33.71c-3.26 7-2.93 13.84 6.7 14.12 34.12-3.05 45.95-4.85 57.03-7.56 14.88-3.65 21.2-6.66 27.39-19.51 8.65-17.96 15.26-34.48 20.07-52.37 4.79-17.91 7.32-35.51 8.81-55.39 1.07-14.22-2.91-19.99-13.96-30.59Z" style="fill:url(#i)"/><path d="M362.12 112.54c-4.97-14.48-8.54-20.51-21.9-25.52-18.67-6.99-35.71-12.09-53.97-15.26-18.27-3.15-36.03-4.08-55.96-3.77-14.26.22-19.65 4.7-29.2 16.67-7.11 8.92-13.71 18.89-30.81 48.58-3.79 8.86 2.28 12.04 10.01 12.01q17.82.47 36.37 1.67c-5.62-9.26-6.92-19.37-3.27-28.37 7.91-19.51 38.87-31.42 69.29-26.15 30.43 5.27 55.58 26.88 56.47 47.92.41 9.71-4.22 18.79-12.62 25.62q17.87 5.11 34.82 10.66c7.26 2.62 14.05 1.67 13.46-7.95-6.12-33.71-8.98-45.32-12.68-56.11Z" style="fill:url(#c)"/><path d="M58.32 155.66c27.76-14.53 70.93-19.68 70.93-19.68 2.75-.3 6.5-1.6 9.37-3.48 4.24-2.72 7.32-5.58 9-9.1 14.11-22.6 25.94-41.32 44.64-59.15-54.48 12.43-102.51 45.22-133.94 91.41Z" style="fill:url(#j)"/><path d="M407.54 115.34c12.36 28.79 14.17 72.23 14.17 72.23.08 2.77 1.09 6.61 2.74 9.6 2.39 4.43 5.01 7.73 8.38 9.67 21.45 15.8 39.2 29.04 55.55 49.06-8.21-55.27-37.21-105.69-80.84-140.57Z" style="fill:url(#k)"/><path style="fill:url(#l)" d="m463.73 10.96-9.3 28.46-28.45 9.3 28.45 9.3 9.3 28.46 9.3-28.46 28.46-9.3-28.46-9.3-9.3-28.46z"/><path style="fill:url(#m)" d="m389.25 48.22-6.55 20.04-20.04 6.55 20.04 6.55 6.55 20.04 6.55-20.04 20.04-6.55-20.04-6.55-6.55-20.04z"/><g style="mask:url(#n)"><path style="fill:#27306c" d="m389.14 48.55.27.17-.16-.5-.11.33z"/></g><g style="mask:url(#o)"><path d="M17.34 339.17c-1.54-1.74-3.06-3.54-4.58-5.39 1.23 8.32 2.94 16.53 5.1 24.59-.38-5.08-.59-10.19-.59-15.35 0-1.29.04-2.57.06-3.86Z" style="fill:#f6f4bb"/></g></svg>
